<?xml version="1.0" encoding="utf-8"?>
<!-- Generator: Adobe Illustrator 19.2.0, SVG Export Plug-In . SVG Version: 6.00 Build 0)  -->
<svg version="1.1" id="Layer_1" xmlns="http://www.w3.org/2000/svg" xmlns:xlink="http://www.w3.org/1999/xlink" x="0px" y="0px"
	 viewBox="0 0 236.2 70" style="enable-background:new 0 0 236.2 70;" xml:space="preserve">
<style type="text/css">
	.st0{fill:#FFFFFF;}
	.st1{fill:url(#SVGID_1_);}
</style>
<g>
	<path class="st0" d="M234.6,61.7c0,3.7-3,6.7-6.7,6.7H8.3c-3.7,0-6.7-3-6.7-6.7V8.3c0-3.7,3-6.7,6.7-6.7h219.6c3.7,0,6.7,3,6.7,6.7
		L234.6,61.7L234.6,61.7z"/>
	<path d="M227.9,70H8.3C3.7,70,0,66.3,0,61.7V8.3C0,3.7,3.7,0,8.3,0h219.6c4.6,0,8.3,3.7,8.3,8.3v53.5C236.2,66.3,232.5,70,227.9,70
		L227.9,70z"/>
	<path d="M234.6,61.7c0,3.7-3,6.7-6.7,6.7H8.3c-3.7,0-6.7-3-6.7-6.7V8.3c0-3.7,3-6.7,6.7-6.7h219.6c3.7,0,6.7,3,6.7,6.7L234.6,61.7
		L234.6,61.7z"/>
	<path class="st0" d="M52.7,34.6c-0.1-5.6,4.6-8.4,4.8-8.5c-2.6-3.9-6.7-4.4-8.2-4.4c-3.4-0.4-6.8,2.1-8.5,2.1c-1.8,0-4.5-2-7.4-2
		c-3.7,0.1-7.3,2.2-9.2,5.6c-4,6.9-1,17,2.8,22.5c1.9,2.7,4.1,5.8,7,5.6c2.8-0.1,3.9-1.8,7.3-1.8c3.4,0,4.4,1.8,7.4,1.7
		c3.1,0,5-2.7,6.8-5.5c2.2-3.1,3.1-6.2,3.1-6.3C58.7,43.6,52.8,41.4,52.7,34.6z"/>
	<path class="st0" d="M47.1,18c1.5-1.9,2.6-4.5,2.3-7.2c-2.2,0.1-5,1.5-6.6,3.4c-1.4,1.6-2.7,4.4-2.3,6.9C43,21.4,45.5,19.9,47.1,18
		z"/>
	
		<linearGradient id="SVGID_1_" gradientUnits="userSpaceOnUse" x1="173.2263" y1="821.188" x2="173.2263" y2="758.0923" gradientTransform="matrix(1 0 0 1 0 -751)">
		<stop  offset="0" style="stop-color:#1A1A1A;stop-opacity:0.1"/>
		<stop  offset="0.1235" style="stop-color:#212121;stop-opacity:0.1506"/>
		<stop  offset="0.3085" style="stop-color:#353535;stop-opacity:0.2265"/>
		<stop  offset="0.5321" style="stop-color:#575757;stop-opacity:0.3181"/>
		<stop  offset="0.7834" style="stop-color:#858585;stop-opacity:0.4212"/>
		<stop  offset="1" style="stop-color:#B3B3B3;stop-opacity:0.51"/>
	</linearGradient>
	<path class="st1" d="M227.9,0H110.3l46.1,70h71.6c4.6,0,8.3-3.7,8.3-8.3V8.3C236.2,3.7,232.5,0,227.9,0z"/>
	<g>
		<path class="st0" d="M93.9,55.1h-4l-2.2-6.8h-7.6l-2.1,6.8h-3.9l7.5-23.3h4.6L93.9,55.1z M87.1,45.4l-2-6.1
			C85,38.7,84.6,37.3,84,35h-0.1c-0.2,1-0.6,2.5-1.1,4.4l-1.9,6.1H87.1z"/>
		<path class="st0" d="M113.2,46.5c0,2.9-0.8,5.1-2.3,6.8c-1.4,1.5-3.1,2.2-5.2,2.2c-2.2,0-3.8-0.8-4.8-2.4V62h-3.7V43.9
			c0-1.8,0-3.6-0.1-5.5h3.3l0.2,2.7h0.1c1.2-2,3.1-3,5.7-3c2,0,3.6,0.8,5,2.3C112.5,41.9,113.2,44,113.2,46.5z M109.4,46.7
			c0-1.6-0.4-3-1.1-4c-0.8-1.1-1.9-1.7-3.2-1.7c-0.9,0-1.8,0.3-2.5,0.9c-0.7,0.6-1.2,1.4-1.5,2.4c-0.1,0.5-0.2,0.8-0.2,1.1v2.8
			c0,1.2,0.4,2.2,1.1,3.1c0.7,0.8,1.7,1.3,2.9,1.3c1.4,0,2.5-0.5,3.3-1.6C109,49.9,109.4,48.5,109.4,46.7z"/>
		<path class="st0" d="M132.5,46.5c0,2.9-0.8,5.1-2.3,6.8c-1.4,1.5-3.1,2.2-5.2,2.2c-2.2,0-3.8-0.8-4.8-2.4V62h-3.7V43.9
			c0-1.8,0-3.6-0.1-5.5h3.3l0.2,2.7h0.1c1.2-2,3.1-3,5.7-3c2,0,3.6,0.8,5,2.3C131.8,41.9,132.5,44,132.5,46.5z M128.7,46.7
			c0-1.6-0.4-3-1.1-4c-0.8-1.1-1.9-1.7-3.2-1.7c-0.9,0-1.8,0.3-2.5,0.9c-0.7,0.6-1.2,1.4-1.5,2.4c-0.1,0.5-0.2,0.8-0.2,1.1v2.8
			c0,1.2,0.4,2.2,1.1,3.1c0.7,0.8,1.7,1.3,2.9,1.3c1.4,0,2.5-0.5,3.3-1.6C128.3,49.9,128.7,48.5,128.7,46.7z"/>
		<path class="st0" d="M154.1,48.6c0,2-0.7,3.6-2.1,4.8c-1.5,1.4-3.6,2-6.3,2c-2.5,0-4.5-0.5-6-1.5l0.9-3.1c1.6,1,3.4,1.5,5.4,1.5
			c1.4,0,2.5-0.3,3.3-1c0.8-0.6,1.2-1.5,1.2-2.5c0-0.9-0.3-1.7-1-2.4c-0.6-0.6-1.7-1.2-3.2-1.8c-4.1-1.5-6.1-3.7-6.1-6.7
			c0-1.9,0.7-3.5,2.2-4.7c1.4-1.2,3.3-1.8,5.7-1.8c2.1,0,3.9,0.4,5.3,1.1l-0.9,3c-1.3-0.7-2.8-1.1-4.5-1.1c-1.3,0-2.4,0.3-3.1,1
			c-0.6,0.6-0.9,1.3-0.9,2.1c0,0.9,0.4,1.7,1.1,2.3c0.6,0.6,1.8,1.2,3.4,1.8c2,0.8,3.5,1.8,4.4,2.8C153.6,45.7,154.1,47,154.1,48.6z
			"/>
		<path class="st0" d="M166.5,41.1h-4.1v8.2c0,2.1,0.7,3.1,2.2,3.1c0.7,0,1.2-0.1,1.7-0.2l0.1,2.8c-0.7,0.3-1.7,0.4-2.9,0.4
			c-1.5,0-2.6-0.5-3.5-1.4c-0.8-0.9-1.2-2.4-1.2-4.5v-8.5h-2.4v-2.8h2.4v-3.1l3.7-1.1v4.2h4.1V41.1z"/>
		<path class="st0" d="M185,46.6c0,2.6-0.7,4.7-2.2,6.4c-1.5,1.7-3.6,2.6-6.2,2.6c-2.5,0-4.4-0.8-5.9-2.5c-1.5-1.6-2.2-3.7-2.2-6.2
			c0-2.6,0.8-4.7,2.3-6.4c1.5-1.7,3.5-2.5,6.1-2.5c2.5,0,4.4,0.8,5.9,2.5C184.3,42,185,44.1,185,46.6z M181.1,46.7
			c0-1.5-0.3-2.9-1-4c-0.8-1.3-1.9-2-3.4-2c-1.5,0-2.6,0.7-3.4,2c-0.7,1.1-1,2.4-1,4c0,1.5,0.3,2.9,1,4c0.8,1.3,1.9,2,3.4,2
			c1.4,0,2.5-0.7,3.4-2C180.8,49.6,181.1,48.2,181.1,46.7z"/>
		<path class="st0" d="M197.1,41.6c-0.4-0.1-0.8-0.1-1.2-0.1c-1.3,0-2.3,0.5-3,1.5c-0.6,0.9-0.9,2-0.9,3.3v8.8h-3.7V43.6
			c0-1.9,0-3.7-0.1-5.3h3.2l0.1,3.2h0.1c0.4-1.1,1-2,1.9-2.7c0.8-0.6,1.7-0.9,2.7-0.9c0.3,0,0.7,0,0.9,0.1L197.1,41.6L197.1,41.6z"
			/>
		<path class="st0" d="M213.8,46c0,0.7,0,1.2-0.1,1.7h-11.2c0,1.7,0.6,2.9,1.6,3.8c0.9,0.8,2.2,1.2,3.7,1.2c1.7,0,3.2-0.3,4.5-0.8
			l0.6,2.6c-1.6,0.7-3.5,1-5.6,1c-2.6,0-4.6-0.8-6.1-2.3c-1.5-1.5-2.2-3.6-2.2-6.2c0-2.5,0.7-4.6,2.1-6.3c1.4-1.8,3.4-2.7,5.9-2.7
			c2.4,0,4.3,0.9,5.5,2.7C213.3,42.1,213.8,43.9,213.8,46z M210.3,45c0-1.1-0.2-2.1-0.7-2.9c-0.6-1-1.6-1.6-3-1.6
			c-1.2,0-2.2,0.5-3,1.5c-0.6,0.8-1,1.8-1.1,2.9L210.3,45L210.3,45z"/>
	</g>
	<g>
		<path class="st0" d="M85.3,23.5h-2l-1.1-3.4h-3.7l-1,3.4h-1.9l3.7-11.4h2.3L85.3,23.5z M82,18.7l-1-3c-0.1-0.3-0.3-1-0.6-2.2h0
			c-0.1,0.5-0.3,1.2-0.5,2.2l-1,3H82z"/>
		<path class="st0" d="M94.5,15.3l-3.1,8.3h-1.8l-3-8.3h2l1.4,4.4c0.2,0.7,0.4,1.4,0.6,2.1h0.1c0.1-0.6,0.3-1.3,0.6-2.1l1.4-4.4
			H94.5z"/>
		<path class="st0" d="M101.2,23.5l-0.1-1H101c-0.6,0.8-1.4,1.1-2.4,1.1c-1.5,0-2.5-1-2.5-2.4c0-2,1.8-3.1,4.8-3.1V18
			c0-1.1-0.6-1.6-1.7-1.6c-0.8,0-1.5,0.2-2.2,0.6l-0.4-1.2c0.8-0.5,1.7-0.7,2.8-0.7c2.2,0,3.2,1.1,3.2,3.4v3c0,0.8,0,1.5,0.1,2
			L101.2,23.5L101.2,23.5z M100.9,19.4c-2,0-3.1,0.5-3.1,1.7c0,0.9,0.5,1.3,1.3,1.3c0.9,0,1.8-0.7,1.8-1.7V19.4z"/>
		<path class="st0" d="M106.8,13.9c-0.6,0-1.1-0.5-1.1-1.1c0-0.6,0.5-1.1,1.1-1.1c0.6,0,1.1,0.5,1.1,1.1
			C108,13.5,107.5,13.9,106.8,13.9z M107.8,23.5h-1.8v-8.3h1.8V23.5z"/>
		<path class="st0" d="M112.9,23.5H111v-12h1.8V23.5z"/>
		<path class="st0" d="M120.7,23.5l-0.1-1h0c-0.6,0.8-1.4,1.1-2.4,1.1c-1.5,0-2.5-1-2.5-2.4c0-2,1.8-3.1,4.8-3.1V18
			c0-1.1-0.6-1.6-1.7-1.6c-0.8,0-1.5,0.2-2.2,0.6l-0.4-1.2c0.8-0.5,1.7-0.7,2.8-0.7c2.2,0,3.2,1.1,3.2,3.4v3c0,0.8,0,1.5,0.1,2
			H120.7z M120.4,19.4c-2,0-3.1,0.5-3.1,1.7c0,0.9,0.5,1.3,1.3,1.3c0.9,0,1.8-0.7,1.8-1.7V19.4z"/>
		<path class="st0" d="M129.6,23.7c-1.2,0-2-0.5-2.6-1.5h0l-0.1,1.3h-1.6c0-0.7,0.1-1.4,0.1-2.2v-9.8h1.8v5h0
			c0.5-0.9,1.4-1.4,2.6-1.4c2,0,3.4,1.7,3.4,4.2C133.3,21.8,131.7,23.7,129.6,23.7z M129.3,16.5c-1.1,0-2,0.9-2,2.2v1.4
			c0,1.1,0.9,2.1,2,2.1c1.4,0,2.2-1.1,2.2-2.9C131.4,17.7,130.6,16.5,129.3,16.5z"/>
		<path class="st0" d="M137.8,23.5H136v-12h1.8V23.5z"/>
		<path class="st0" d="M147.8,19.8h-5.5c0,1.6,1.1,2.4,2.6,2.4c0.8,0,1.6-0.1,2.2-0.4l0.3,1.3c-0.8,0.3-1.7,0.5-2.8,0.5
			c-2.6,0-4.1-1.6-4.1-4.2c0-2.5,1.6-4.4,3.9-4.4c2.1,0,3.4,1.6,3.4,3.9C147.9,19.3,147.9,19.6,147.8,19.8z M146.1,18.5
			c0-1.3-0.6-2.2-1.8-2.2c-1.1,0-1.9,0.9-2,2.2H146.1z"/>
		<path class="st0" d="M158.9,23.7c-2.4,0-4-1.8-4-4.2c0-2.5,1.6-4.4,4.1-4.4c2.4,0,4,1.7,4,4.2C163,21.9,161.4,23.7,158.9,23.7z
			 M159,16.4c-1.3,0-2.2,1.2-2.2,3c0,1.7,0.9,2.9,2.2,2.9s2.2-1.3,2.2-3C161.1,17.7,160.3,16.4,159,16.4z"/>
		<path class="st0" d="M172.9,23.5h-1.8v-4.7c0-1.5-0.6-2.2-1.7-2.2c-1.1,0-1.8,0.9-1.8,2v4.9h-1.8v-5.9c0-0.7,0-1.5-0.1-2.4h1.6
			l0.1,1.3h0.1c0.5-0.9,1.5-1.4,2.6-1.4c1.7,0,2.9,1.3,2.9,3.5V23.5L172.9,23.5z"/>
		<path class="st0" d="M184.9,16.6h-2v4c0,1,0.4,1.5,1.1,1.5c0.3,0,0.6,0,0.8-0.1l0.1,1.4c-0.4,0.1-0.8,0.2-1.4,0.2
			c-1.4,0-2.3-0.8-2.3-2.9v-4.2h-1.2v-1.4h1.2v-1.5l1.8-0.5v2.1h2V16.6z"/>
		<path class="st0" d="M194.6,23.5h-1.8v-4.7c0-1.5-0.6-2.2-1.7-2.2c-1,0-1.8,0.6-1.8,2v5h-1.8v-12h1.8v5h0c0.6-0.9,1.4-1.3,2.5-1.3
			c1.7,0,2.8,1.4,2.8,3.5V23.5z"/>
		<path class="st0" d="M204,19.8h-5.5c0,1.6,1.1,2.4,2.6,2.4c0.8,0,1.6-0.1,2.2-0.4l0.3,1.3c-0.8,0.3-1.7,0.5-2.8,0.5
			c-2.6,0-4.1-1.6-4.1-4.2c0-2.5,1.6-4.4,3.9-4.4c2.1,0,3.4,1.6,3.4,3.9C204.1,19.3,204,19.6,204,19.8z M202.3,18.5
			c0-1.3-0.6-2.2-1.8-2.2c-1.1,0-1.9,0.9-2,2.2H202.3z"/>
	</g>
</g>
</svg>
