<?xml version="1.0" encoding="utf-8"?>
<!-- Generator: Adobe Illustrator 19.2.0, SVG Export Plug-In . SVG Version: 6.00 Build 0)  -->
<svg version="1.1" id="Layer_1" xmlns="http://www.w3.org/2000/svg" xmlns:xlink="http://www.w3.org/1999/xlink" x="0px" y="0px"
	 viewBox="0 0 511 121.2" style="enable-background:new 0 0 511 121.2;" xml:space="preserve">
<style type="text/css">
	.st0{fill:#5CB947;}
	.st1{fill:#FFFFFF;}
	.st2{fill:#333333;}
	.st3{fill:none;}
</style>
<g>
	<path class="st0" d="M237.1,87.3l11.1-8.9c-2.7-0.9-4.7-3-2.6-6.1c0.9-0.9,1.8-1.8,2.5-2.7l-9.5-10.4c-0.4-0.2-0.7-0.5-1-0.5
		c2.5-5.7,2.1-15.5,7-19.6l4.5-12.9l-9.8-7.7l3.2-6.6L0,33.1l7.5,85.8l243.2-21.3L237.1,87.3z"/>
	<path class="st0" d="M276.7,12.6l-2.1,2.9c1,2,1.6,4.2,0.6,6.2l5.6,6.3l-1.4,2.4c1.7,2.4,2.4,5.4,3.6,7.7c-2.4,0-5.2,0-7.8,0
		l-1.3,2.4c1.6,3.4,2.5,6.9,0.6,9.1l1.5,3l-11.4,5.7L276,76.2l-17.6,9.7l11.6,12.5l233.6,20.4l7.5-85.8L276.7,12.6z"/>
	<path class="st1" d="M237.1,89.7l11.1-8.9c-2.7-0.9-4.7-3-2.6-6.1c0.9-0.9,1.8-1.8,2.5-2.7l-9.5-10.4c-0.4-0.2-0.7-0.5-1-0.5
		c2.5-5.7,2.1-15.5,7-19.6l4.5-12.9l-9.8-7.7l3.2-6.6L0,35.5l7.5,85.8L250.7,100L237.1,89.7z"/>
	<path class="st1" d="M272.8,14.9l-2.1,2.9c1,2,1.6,4.2,0.6,6.2l5.6,6.3l-1.4,2.4c1.7,2.4,2.4,5.4,3.6,7.7c-2.4,0-5.2,0-7.8,0
		l-1.3,2.4c1.6,3.4,2.5,6.9,0.6,9.1l1.5,3l-11.4,5.7l11.5,18.1l-17.6,9.7l11.6,12.5l233.6,20.4l7.5-85.8L272.8,14.9z"/>
	<path class="st1" d="M268.7,0l-14.4,3.9C260,5.1,265.1,5.1,268.7,0z"/>
	<path class="st1" d="M248.1,14.7c1.6-1.1,2.7-2,3.7-2.8l-7-0.9C246,13.5,246.9,16.4,248.1,14.7z"/>
	<path class="st1" d="M271,9.1c-0.1,0-0.3,0-0.4-0.1l-9.7,2.6C265.3,13.4,268.8,14.2,271,9.1z"/>
	<path class="st1" d="M271.3,15.4l-2.2,3.1l2.7,3.1C272.9,19.7,272.3,17.4,271.3,15.4z"/>
	<polygon class="st0" points="271.2,91.9 270.5,94.3 275.1,95.3 273.9,97.3 277.3,98.3 274.2,97.2 275.8,95.1 270.8,94.2 
		271.8,91.7 269.5,90.6 270.2,90.5 270.9,89.2 274.1,89.2 276.9,88.4 277.1,87.4 280.7,89 282.7,88.2 280.7,88.8 276.8,86.9 
		276.7,88.2 274.1,89 270.7,88.9 270,90.3 267.4,90.9 269.3,90.6 	"/>
	<polygon class="st0" points="283,34.2 287,33.8 287.9,36.1 293.7,34.7 298.6,37.1 300.6,35.3 305.2,35.7 300.5,34.9 298.6,36.9 
		293.9,34.1 290.9,35.3 295.9,32.5 295.7,27.3 299.3,26.7 295.4,26.8 295.3,31.7 290.5,35.3 288.1,35.9 287.2,33.2 283,34 
		279.4,28.4 276.2,31.2 279.3,29.5 	"/>
	<polygon class="st0" points="349.6,28.1 348.3,32.5 345.4,32.4 344.5,39 340,43 340.9,45.9 338.6,50.4 341.4,45.9 340.2,43.1 
		345,39.5 345.1,35.9 345.9,42.1 351.3,44.1 350.4,48.2 351.9,44.1 346.9,41.9 345.2,35.4 345.6,32.7 348.8,32.9 349.7,28.3 
		357,26.9 355.5,22.5 355.9,26.3 	"/>
	<polygon class="st0" points="8.1,48.5 12.1,48.1 13.1,50.5 18.9,49 23.7,51.4 25.8,49.7 30.4,50.1 25.6,49.3 23.7,51.2 19.1,48.5 
		16.1,49.6 21,46.8 20.8,41.6 24.5,41 20.6,41.2 20.5,46 15.7,49.7 13.2,50.3 12.3,47.5 8.2,48.3 4.6,42.7 1.4,45.5 4.4,43.9 	"/>
	<polygon class="st0" points="234.6,87.2 229.3,88.3 229.7,86.6 225.5,86.7 223.5,82.9 225.2,86.8 228.9,86.9 229,88.5 233.8,87.8 
		235.9,89.7 227,89.9 225.7,87.9 220.9,89.3 217.5,91 209.9,89.9 205.8,92.7 189.2,93.4 206,93.1 206.1,93.1 210.1,90.5 217.5,91.2 
		221.1,89.5 225.4,88.4 226.8,90.1 230.4,90 225.1,91.5 223.9,93.6 220.8,93.5 212.3,96.8 221.2,94 224.1,93.8 225.8,91.8 231,90 
		237,89.7 236.3,89.7 	"/>
	<polygon class="st0" points="476.6,107.7 480.4,107 484.5,110.7 486.5,109.3 490,110.5 490,110.5 492.2,110.4 490.9,112.1 
		488.3,111.6 486,113.6 488.3,111.8 491.3,112.8 492.4,110.4 495.8,108 499.4,109.5 495.7,107.5 492.3,110.3 490.9,109.7 
		492.2,107.9 489,106.8 489.1,105.1 488.8,106.9 491.5,108.1 490.7,109.8 491.9,110.3 490,110.3 486.4,109.2 484.5,110.5 
		480.5,106.5 476.6,107.5 474.9,106.7 470.9,104.2 466.2,107.8 470.9,104.8 474.8,106.8 	"/>
	<polygon class="st0" points="242,75.4 238.9,75.2 236.5,74.2 236.5,73 232.8,74.4 230.9,73.7 232.8,74.6 236.2,73.5 236.3,74.3 
		238.8,75.3 241.8,75.6 242.3,76.8 242.9,77 240.7,77.8 241.5,80.2 236.8,80.6 238,82.7 235.1,83.4 238.3,82.8 237.4,80.9 
		241.7,80.3 241.2,78.1 243.1,77 244.8,77.4 242.5,76.7 	"/>
	<polygon class="st0" points="233.6,24.7 229.7,24.5 229.2,27.1 226.9,26.9 222,24.2 221.3,19.8 217.7,20.2 221.2,20.2 221.7,25 
		226.6,26.9 223.6,26.2 219.8,29.4 217.8,27.9 213.5,29.2 217.7,28.2 219.8,29.6 223.9,26.7 229.4,27.3 229.9,25 233.7,24.9 
		236.4,20.2 239.4,21.3 236.2,19.1 	"/>
	<path class="st0" d="M27.4,86.1l0.1,2.7l18.9-1.7l-0.6-6.4l-3.2,0.3l-1-11.9c-0.1-1.7-0.4-3.1-0.8-4.2c-0.4-1.2-1-2.2-1.9-3.1
		c-0.8-0.8-2.1-1.3-3.8-1.7c-1.5-0.3-3.7-0.4-6.3-0.2c-3.9,0.3-7.1,0.8-8.7,1.3l0.6,6.4l1.4-0.3c2.5-0.5,4.7-0.8,6.5-0.9
		c2.8-0.2,4.1,1,4.3,3.8l1,11.5L32.5,82l0.9,1.3L27.4,86.1z"/>
	<polygon class="st0" points="30.9,82.4 30.4,81.5 20.7,83.6 22,89.8 26.5,88.8 26.2,86 	"/>
	<polygon class="st0" points="27.4,86.1 33.4,83.3 32.5,82 31.9,82 32.3,83 27.2,86 27.1,88.9 27.5,88.8 	"/>
	<path class="st0" d="M70.7,69.2c0,2.5-0.2,4.5-0.7,6.1c-1.6,5.4-5.7,8.9-12.5,10.6l-9.4,2.3l-0.6-6.6l6.6-1.5l-7.8-21l8.3-0.7
		L59,70.1l2,6.8c1-1.3,1.5-3.4,1.5-6.5l0-12.6l8.3-0.7L70.7,69.2z"/>
	<path class="st0" d="M87.7,83.6l-1.6-17.9c-0.2-2.8-1.8-4-4.6-3.8c-2.1,0.2-4.5,0.6-7.7,1.1l-0.6-6.4c3.2-0.6,5.6-0.9,7.8-1.1
		c2.2-0.2,4-0.2,5.3-0.1c1.3,0.1,2.4,0.3,3.3,0.7c0.9,0.4,1.7,0.8,2.3,1.4s1.1,1.2,1.5,2c0.4,0.8,0.7,1.6,0.9,2.5
		c0.2,0.8,0.4,1.8,0.5,3l1.6,17.9L87.7,83.6z"/>
	<path class="st0" d="M116.2,81.1l-1.6-17.9c-0.2-2.8-1.5-4-4.3-3.8c-2.5,0.2-5.3,0.7-8.7,1.3l-1.6,0.3l-0.6-6.4
		c3.1-0.8,7.2-1.4,11.4-1.8c3.4-0.3,6-0.1,7.7,0.7c0.9,0.4,1.6,0.8,2.2,1.4c0.6,0.5,1.1,1.2,1.5,2c0.4,0.8,0.5,1.7,0.7,2.5
		c0.2,0.8,0.2,1.8,0.3,3l1.6,17.9L116.2,81.1z"/>
	<polygon class="st0" points="144.9,68.9 140.8,69.3 139.2,51 148,50.3 149.1,63 	"/>
	
		<rect x="154.9" y="60.5" transform="matrix(0.9962 -8.715921e-02 8.715921e-02 0.9962 -5.8515 14.1619)" class="st0" width="8.8" height="27.1"/>
	<path class="st0" d="M176,64.4c-1.1,3.8-1.4,7.1-1.1,9.9l0.1,1.6l-7.9,0.7l-0.1-1.6c-0.1-1.1-0.1-2.7,0.1-4.7
		c0.2-2.1,0.5-3.7,0.9-5.2l2.9-10.4l-17.5,1.5l-0.6-6.4l26.2-2.3l0.4,4.6L176,64.4z"/>
	
		<rect x="184.1" y="46.8" transform="matrix(0.9962 -8.715843e-02 8.715843e-02 0.9962 -4.5802 16.6249)" class="st0" width="8" height="27.9"/>
	<path class="st0" d="M337.5,57.6c-0.1,0.9-0.1,1.7-0.3,2.3c-0.2,0.6-0.4,1.3-0.8,2.1c-0.8,1.5-2.3,2.7-4.6,3.4
		c2.3,4.5,4.1,7.8,5.3,10.3l-9.3-0.8l-6.4-13.3c-0.3,0.4-0.5,1-0.6,2.2L320,74.1l-8.7-0.8l0.9-10.4c0.1-0.9,0.4-1.6,0.6-2.3
		c0.2-0.7,0.6-1.3,1-2.1c0.8-1.5,2.4-2.5,4.7-3.1c-1.6-3-3.3-6.7-5.2-10l9.2,0.8l4.7,9.7l1.8,3.2c0.3-0.5,0.5-1.3,0.6-2.3l0.9-9.9
		l7.9,0.7L337.5,57.6z"/>
	<path class="st0" d="M378.1,59.9l-1.7,19.2L352.6,77l2.4-27.6c4-0.2,7.5-0.1,11.7,0.2c4.2,0.4,7.4,1.4,9.1,2.9
		C377.5,54.1,378.4,56.6,378.1,59.9z"/>
	<polygon class="st0" points="391.2,65.2 386.2,70.3 382.8,70 384.4,51.8 392.4,52.5 	"/>
	<path class="st0" d="M415.3,64.5l-1.6,17.9l-7.9-0.7l1.6-17.9c0.2-2.8-1-4.3-3.8-4.5c-2.1-0.2-5.3-0.3-7.8-0.2l0.6-6.4
		c2.4-0.1,5.4,0,7.6,0.2c2.2,0.2,3.9,0.4,5.1,0.8c1.2,0.3,2.2,0.7,3,1.3c0.8,0.5,1.4,1.1,1.9,1.7s0.9,1.4,1.1,2.2
		c0.2,0.9,0.3,1.7,0.3,2.6C415.5,62.3,415.4,63.3,415.3,64.5z"/>
	<path class="st0" d="M441.5,84.8l-23-2l0.6-6.4l11.9,1l1-11.5c0.2-2.8-1.1-4.3-3.9-4.5c-1.8-0.2-3.9-0.2-6.4-0.2l-1.3,0l0.6-6.4
		c1.6-0.2,4.6-0.2,8.5,0.2c2.6,0.2,4.6,0.6,6.1,1.2c1.6,0.7,2.7,1.4,3.4,2.3c0.7,1,1.1,2.1,1.2,3.3c0.2,1.2,0,2.6-0.1,4.3l-1,11.9
		l3.2,0.3L441.5,84.8z"/>
	
		<rect x="436.8" y="67.6" transform="matrix(8.714767e-02 -0.9962 0.9962 8.714767e-02 340.126 514.3265)" class="st0" width="27.9" height="8"/>
	<path class="st1" d="M368.7,57.5c-0.7-0.4-1.7-0.6-3.1-0.7l-2.3,0l-0.6,15.3l6,0.2l0.5-12.8C369.2,58.6,369.4,57.9,368.7,57.5z"/>
	<polygon class="st0" points="219.4,59.7 216.2,58 213.1,61.1 215.5,74.3 224.2,72.8 221.9,60.1 220.8,60.5 	"/>
	<path class="st0" d="M219.2,58.2l1.3,0.9l1.1-0.4l-0.4-4.8c-0.1-1.2-0.2-2.3-0.4-3.1c-0.2-0.9-0.4-1.7-0.7-2.5
		c-0.4-0.8-0.8-1.5-1.4-2c-0.6-0.5-1.3-0.9-2.2-1.3c-1.7-0.7-4.3-0.9-7.7-0.6c-4.3,0.4-8.3,1-11.4,1.8l2.4,27.6l7.9-0.7l-1.9-22
		c0.8-0.1,1.5-0.2,2.3-0.3c2.8-0.2,4.2,1,4.4,3.8l0.4,4.4l3.4-3.4L219.2,58.2z"/>
	<polygon class="st0" points="235.1,59 232.4,61.8 231.4,61.2 232.3,59.4 229.9,58.3 230,56.6 229.8,58.4 231.8,59.6 231.2,61.3 
		232.1,61.8 230.7,61.8 228,60.7 226.5,62 223.4,58 221.5,58.7 221.5,59 223.3,58.6 226.5,62.2 228,60.8 230.6,62 230.7,62 
		232.3,61.9 231.4,63.6 229.4,63.1 227.6,65.1 229.4,63.3 231.6,64.3 232.5,61.9 235.1,59.5 237.9,61.1 	"/>
	<polygon class="st2" points="212.5,59.3 212.7,59.1 212.7,59 	"/>
	<polygon class="st0" points="220.5,59.1 219.2,58.2 216.2,55.7 212.7,59 212.7,59.1 216.1,56.3 219.1,58.3 220.4,59.2 221.5,59 
		221.5,58.7 	"/>
	<polygon class="st3" points="494.4,66.6 494.9,66.5 492.1,65.2 492.8,63.4 491.7,61.9 490.7,67.5 	"/>
	<polygon class="st0" points="485.7,64.7 488,60.7 489.7,65.8 490.3,65.8 492.1,60.4 492,60.3 492,59.7 484.4,57.9 482.5,63.7 
		483.3,64.7 	"/>
	<polygon class="st0" points="491.8,61.2 491.8,61.2 491.8,61.2 	"/>
	<path class="st0" d="M487.8,64.6l-1.6,2.7l-2.7,0.7l-0.9-1.3l-1.1,6.1c-0.5,3.1-1.5,5.2-2.8,6.5c-1.3,1.3-2.9,2-4.6,1.9l-5.6-0.5
		l0-3.2l0.3,0c0.9,0.1,1.8,0.2,2.7,0.1c0.6-0.1,1.2-0.1,1.7-0.3c0.5-0.2,1.1-0.5,1.7-0.9c0.6-0.4,1.2-0.9,1.6-1.5
		c0.5-0.6,0.9-1.3,1.3-2.2c0.4-0.9,0.7-1.9,0.9-3l1.7-9.7l-8-0.7l-1.7,9.8c-0.1,0.6-0.2,0.9-0.4,1.3c-0.2,0.4-0.4,0.7-0.6,0.9
		c-0.2,0.2-0.4,0.3-0.6,0.4c-0.2,0.1-0.4,0.2-0.6,0.2l0-12.9l-8.1-0.7l-0.1,28l12.2,1.1c1.6,0.1,3.1,0,4.5-0.1
		c1.3-0.1,2.7-0.6,4.1-1.1c1.4-0.5,2.6-1.3,3.6-2.3c1-1,2-2.4,2.8-4.1c0.8-1.8,1.5-3.8,1.9-6.2l1.1-5.9l-0.6,0.1L487.8,64.6z"/>
	<polyline class="st0" points="492.1,65.2 494.9,66.5 494.4,66.6 490.7,67.5 490.6,67.7 494.5,66.9 500.7,65 502.6,66.1 498.1,67.9 
		499.1,72 498.4,73.6 501.4,76.5 493.7,78.9 502.8,76.9 498.7,73.5 499.3,72.1 498.9,68.8 502.8,66.3 504.4,67.2 504.4,67.2 
		504.4,67.1 500.8,64 495.3,66.4 492.4,65.1 493,63.3 	"/>
	<polygon class="st2" points="482.3,66.1 482.7,66.7 482.7,66.5 	"/>
	<polygon class="st1" points="490.2,67.6 487.8,62.8 486.1,67 483.7,67.4 482.7,66.5 482.7,66.7 483.5,68 486.2,67.3 487.8,64.6 
		490.1,67.9 490.6,67.7 490.7,67.5 	"/>
	
		<rect x="101.2" y="65.4" transform="matrix(0.9962 -8.715415e-02 8.715415e-02 0.9962 -6.0278 9.4516)" class="st0" width="8" height="16.7"/>
	<path class="st3" d="M292.6,65.8c-0.2,0.8-0.5,1.6-1,2.3c-0.5,0.7-1,1.3-1.7,1.8c-1.5,1-3.7,1.4-6.5,1.1c-0.6-0.1-1.3-0.2-1.9-0.4
		c-0.6-0.2-1.1-0.4-1.4-0.6l-0.5-0.3l0.5-6c0.8,0.3,1.9,0.5,2.7,0.5c0.7,0.1,1.4-0.1,1.6-0.4c0.3-0.3,0.6-0.9,0.6-1.7l0.1-1.6
		c0,0,0,0-0.1-0.1c0,0,0,0,0.1,0.1l0-0.1c-0.6,0.3-1.2,0.5-1.9,0.6c-0.9,0.2-1.8,0.4-2.6,0.8c-0.8,0.4-1.5,1.1-1.9,1.9
		c-0.3,0.6-0.3,1.3-0.5,2c-0.3,1.1-1,2.1-1.5,3.1c-0.5,1-0.9,2.2-0.5,3.3c0.2,0.5,0.5,0.9,0.8,1.3c0.5,0.6,1.1,1.2,1.9,1.5
		c0.4,0.1,0.9,0.2,1.3,0.2c2.8,0.1,5.6-0.3,8.3-1.1c0.8-0.3,1.7-0.6,2.3-1.2c0.6-0.6,0.9-1.5,1.1-2.3c0.8-2.9,1.2-5.9,1.9-8.8
		c-0.2-0.4-0.4-0.7-0.7-1.1L293,63C292.9,64,292.8,65,292.6,65.8z"/>
	<path class="st0" d="M291.9,62.7c-0.1-0.2-0.1-0.4-0.2-0.7c-0.7,0.7-1.4,1.3-2.2,2c0-0.6-0.1-1.1-0.1-1.7c-0.5,0.4-0.9,0.8-1.3,1.3
		c-0.2-0.3-0.3-0.7-0.3-1c-0.5,0.1-1,0.2-1.6,0.3c-0.1,0-0.2,0-0.3,0c-0.1,0-0.2-0.1-0.3-0.2c-0.2-0.2-0.4-0.5-0.6-0.7l-0.4,1.5
		c-0.2,0.8-0.6,1.3-0.9,1.6c-0.3,0.3-1,0.3-1.7,0.1c-0.7-0.2-1.8-0.6-2.5-1L278,70l0.4,0.4c0.3,0.2,0.7,0.5,1.3,0.8
		c0.6,0.3,1.2,0.6,1.8,0.7c2.7,0.7,4.9,0.7,6.5,0c0.8-0.3,1.4-0.8,2-1.5c0.6-0.6,1-1.4,1.4-2.1c0.4-0.8,0.6-1.7,0.9-2.7l0.6-2.2
		c-0.2-0.5-0.4-1-0.6-1.5C292.1,62.1,292,62.4,291.9,62.7z"/>
	<polyline class="st0" points="285.3,49.3 281.8,50.8 282.6,53 281.2,55.2 280.1,55.9 280,57.1 277.8,57 275,54 272,54.9 
		271.9,54.9 271.9,54.9 273.2,54.8 274.9,57.5 273.8,59.3 273.8,60.4 270.3,61.2 275.5,65.1 271.3,61.4 274,60.5 273.9,59.4 
		275.6,57.1 273.4,54.8 274.8,54.6 278.2,57.6 280.7,59.4 283,58.1 283.3,60.2 284.3,61.1 285.2,60.8 284.8,61 283.4,60.1 283.5,57 
		280.7,59.2 278.3,57.4 278,57.2 280.1,57.3 280.2,56 281.3,55.3 282.8,53.1 282.2,51 285.5,49.4 	"/>
	<path class="st0" d="M284.1,46.8c-0.2-0.5-0.5-0.9-0.8-1.4c-0.4-0.6-0.8-1.3-1.3-1.9c-0.4,0.2-0.7,0.3-1.1,0.5l2.1,6l2.4-1
		c-0.2-0.4-0.5-0.7-0.8-1.1C284.4,47.5,284.2,47.1,284.1,46.8z"/>
	<path class="st3" d="M309.6,47c-0.5-1.1-1.2-2.1-2-3c-0.4-0.5-0.8-1-1.3-1.4c-0.2-0.2-0.4-0.3-0.7-0.4c-0.2-0.1-0.5-0.1-0.7-0.1
		c-0.6,0-1.1,0-1.7,0c-0.1,0-0.2,0-0.3,0c-0.2,0.1-0.3,0.4-0.5,0.4c0.1,0.6,0.2,1.3,0.2,1.9c1.4,0.5,2.4,1,3.2,1.7
		c0.5,0.5,1,1.1,1.3,1.6c0.3,0.5,0.6,1.2,0.7,1.9c0.8,0.2,1.6,0.4,2.4,0.7C310.4,49.3,310.1,48.1,309.6,47z"/>
	<path class="st0" d="M305.9,46.3c-0.8-0.7-1.8-1.3-3.2-1.7c0,0.4,0.1,0.9,0.1,1.3c0,1-0.1,2,0.3,2.9c0.1,0.2,0.2,0.4,0.4,0.6
		c0.3,0.2,0.7,0.2,1.1,0.2c1.1-0.1,2.2,0,3.3,0.2c-0.2-0.7-0.4-1.4-0.7-1.9C306.9,47.4,306.5,46.8,305.9,46.3z"/>
	<path class="st0" d="M304.6,49.6c-0.4,0-0.8,0.1-1.1-0.2c-0.2-0.1-0.3-0.4-0.4-0.6c-0.3-0.9-0.3-1.9-0.3-2.9c0-0.4,0-0.9-0.1-1.3
		c-1.5-0.5-3.3-0.9-5.6-1c-3.9-0.3-8.1-0.5-12.4-0.4c0.1,0.8,0.2,1.5,0.3,2.3c0.1,0.5,0.2,1.1,0.2,1.6c0,0.4,0,0.8,0.1,1.2
		c0.1,0.4,0.2,0.9,0.2,1.3l0.6,0l-1,11c0,0,0,0,0,0c0,0,0,0,0,0l0,0.1c0.3,0.2,0.5,0.4,0.8,0.6c0.1,0.1,0.2,0.1,0.3,0.2
		c0.1,0,0.2,0,0.3-0.1c0.5-0.2,1-0.4,1.5-0.6c0.1,0.3,0.3,0.7,0.5,1c0.3-0.5,0.6-1,1-1.5c0.1,0.5,0.3,1.1,0.4,1.6
		c0.6-0.8,1.2-1.6,1.8-2.4c0.1,0.2,0.2,0.4,0.3,0.6c0-0.3,0.1-0.7,0.2-0.9c0.3,0.5,0.6,0.9,0.9,1.4l1-10.9c0.8,0.1,0.7,0,1.4,0.1
		c2.8,0.2,4,1.7,3.8,4.5l-1.6,17.9l8.7,0.8l1.6-18.2c0.2-2,0.1-3.6-0.2-4.8c0,0,0,0,0-0.1C306.8,49.6,305.7,49.5,304.6,49.6z"/>
</g>
</svg>
