<?xml version="1.0" encoding="utf-8"?>
<!-- Generator: Adobe Illustrator 19.2.1, SVG Export Plug-In . SVG Version: 6.00 Build 0)  -->
<svg version="1.1" id="Layer_1" xmlns="http://www.w3.org/2000/svg" xmlns:xlink="http://www.w3.org/1999/xlink" x="0px" y="0px"
	 viewBox="0 0 200 50" style="enable-background:new 0 0 200 50;" xml:space="preserve">
<style type="text/css">
	.st0{fill:none;}
	.st1{fill:#FFFFFF;}
</style>
<g>
	<rect class="st0" width="50" height="50"/>
	<rect x="150" class="st0" width="50" height="50"/>
	<g>
		<g>
			<path class="st1" d="M185.3,36h-21v-0.5c0-1.1,1-2.8,2.3-3.8l3.7-2.2c0.5-0.3,1.2-0.3,1.7,0l2.9,1.7l2.9-1.8
				c0.6-0.3,1.2-0.3,1.6,0l3.7,2.3c1.4,1,2.2,2.7,2.2,3.8V36z M165.8,35h18.4c-0.2-0.8-0.8-1.8-1.6-2.4l-3.6-2.3
				c-0.2-0.1-0.4,0-0.6,0.1l-3.4,2.1l-3.4-2c-0.2-0.1-0.4-0.1-0.5,0l-3.6,2.2C166.6,33.2,166,34.2,165.8,35z"/>
		</g>
		<g>
			<path class="st1" d="M172.3,30.8c-0.1,0-0.3,0-0.4-0.1c-0.3-0.2-0.3-0.6-0.1-0.8l0,0c0,0,0.4-0.6,0.5-2.2c-1-1-1.5-2-1.7-2.6
				c-0.2,0-0.4-0.1-0.6-0.3c-0.5-0.4-0.8-1-1-1.9c-0.1-0.7,0-1.3,0.3-1.7c0.1-0.2,0.3-0.3,0.5-0.4c0-1,0.1-3.1,1.4-4.4
				c0.2-0.2,0.4-0.3,0.7-0.5l0.8-0.4c0.1-0.3,0.2-0.9,0.6-1.4c0.1-0.1,0.2-0.2,0.4-0.3c0.2,0,0.3,0,0.5,0.1c0.4,0.3,0.8,0.4,1.3,0.6
				c0.8,0.3,1.8,0.6,2.9,1.8c1.5,1,1.8,3.3,1.8,4.3c0.2,0.1,0.3,0.2,0.5,0.4c0.3,0.4,0.5,1,0.3,1.7c-0.1,0.9-0.5,1.5-1,1.9
				c-0.2,0.1-0.4,0.2-0.6,0.3c-0.2,0.5-0.7,1.5-1.7,2.6c0.1,1.6,0.5,2.2,0.5,2.2c0.2,0.3,0.1,0.6-0.1,0.8c-0.3,0.2-0.6,0.2-0.8-0.1
				c-0.1-0.1-0.7-1-0.8-3.1c0-0.2,0.1-0.3,0.2-0.4c1.3-1.3,1.7-2.6,1.7-2.6c0.1-0.3,0.4-0.5,0.7-0.4c0.1,0,0.5-0.2,0.7-1.2
				c0.1-0.4,0-0.6-0.1-0.8c-0.1-0.1-0.2-0.1-0.2-0.1c-0.3,0-0.6-0.3-0.6-0.6c0-0.8-0.1-3-1.3-3.8c0,0-0.1-0.1-0.1-0.1
				c-0.9-1-1.7-1.3-2.4-1.6c-0.3-0.1-0.7-0.2-1-0.4c-0.2,0.4-0.2,0.7-0.2,0.7c0,0.2-0.2,0.4-0.4,0.5l-1.1,0.5
				c-0.2,0.1-0.3,0.1-0.4,0.2c-1.1,1-1.1,3.2-1,3.9c0,0.2,0,0.3-0.1,0.5c-0.1,0.1-0.3,0.2-0.4,0.2c0,0-0.1,0-0.2,0.1
				c-0.1,0.1-0.2,0.3-0.1,0.8c0.2,0.9,0.5,1.2,0.7,1.2c0.3-0.1,0.6,0.1,0.7,0.4c0,0,0.4,1.3,1.7,2.6c0.1,0.1,0.2,0.3,0.2,0.4
				c-0.1,2.2-0.7,3-0.8,3.1C172.6,30.7,172.4,30.8,172.3,30.8z"/>
		</g>
	</g>
	<rect x="100" class="st0" width="50" height="50"/>
	<g>
		<g>
			<path class="st1" d="M125,36.6c-6.4,0-11.6-5.2-11.6-11.6s5.2-11.6,11.6-11.6c6.4,0,11.6,5.2,11.6,11.6S131.4,36.6,125,36.6z
				 M125,14.6c-5.7,0-10.4,4.7-10.4,10.4s4.7,10.4,10.4,10.4c5.7,0,10.4-4.7,10.4-10.4S130.7,14.6,125,14.6z"/>
		</g>
		<g>
			<path class="st1" d="M128.4,32.5c-0.2,0-0.4,0-0.5,0c0,0-3.5-0.3-6.7-3.6c-3.2-3.1-3.5-6.4-3.5-6.7c-0.2-2.2,0.8-4,2.7-4.7
				c0.8-0.3,1.6,0.1,2,0.9l0.9,1.9c0.3,0.6,0.1,1.3-0.3,1.8l-1.1,1.1c0.1,0.4,0.6,1.3,2,2.6c1.4,1.4,2.2,1.8,2.6,2l1.1-1.1
				c0.5-0.5,1.2-0.6,1.9-0.3l2.2,1.1c0.7,0.3,1,1.1,0.8,1.9C131.8,31.4,130.3,32.5,128.4,32.5z M120.8,18.7c0,0-0.1,0-0.1,0
				c-1.4,0.5-2.1,1.8-1.9,3.5l0,0c0,0,0.3,3,3.2,5.9c2.9,2.9,5.9,3.2,6,3.2c2.2,0.2,3-1.3,3.2-2.2c0.1-0.2,0-0.4-0.2-0.5l-2.2-1.1
				c-0.2-0.1-0.3,0-0.5,0.1l-1.5,1.5l-0.3,0c-0.2,0-1.4-0.2-3.6-2.4c-2.2-2.2-2.4-3.4-2.4-3.7l0-0.3l1.5-1.5
				c0.1-0.1,0.1-0.3,0.1-0.5l-0.9-1.9C121.1,18.8,121,18.7,120.8,18.7z"/>
		</g>
	</g>
	<rect x="50" class="st0" width="50" height="50"/>
	<g>
		<g>
			<path class="st1" d="M84,36.6H66c-1.4,0-2.5-1.1-2.5-2.5V23.2c0-0.7,0.3-1.4,0.9-1.9l8.3-7.1c1.3-1.1,3.3-1.1,4.6,0l8.3,7.1
				c0.6,0.5,0.9,1.2,0.9,1.9v10.9C86.5,35.5,85.4,36.6,84,36.6z M75,14.6c-0.5,0-1.1,0.2-1.5,0.6l-8.3,7.1c-0.3,0.2-0.4,0.6-0.4,1
				v10.9c0,0.7,0.6,1.3,1.3,1.3H84c0.7,0,1.3-0.6,1.3-1.3V23.2c0-0.4-0.2-0.7-0.4-1l-8.3-7.1C76.1,14.8,75.6,14.6,75,14.6z"/>
		</g>
		<g>
			<path class="st1" d="M74.9,29.9c-0.1,0-0.2,0-0.3-0.1l-8.9-5c-0.3-0.2-0.4-0.5-0.2-0.8c0.2-0.3,0.5-0.4,0.8-0.2l8.6,4.8l8.6-4.8
				c0.3-0.2,0.7-0.1,0.8,0.2c0.2,0.3,0.1,0.7-0.2,0.8l-8.9,5C75.1,29.9,75,29.9,74.9,29.9z"/>
		</g>
		<g>
			<path class="st1" d="M80.5,26.6c-0.3,0-0.6-0.3-0.6-0.6v-4.4h-9.8V26c0,0.3-0.3,0.6-0.6,0.6s-0.6-0.3-0.6-0.6v-5
				c0-0.3,0.3-0.6,0.6-0.6h11c0.3,0,0.6,0.3,0.6,0.6v5C81.1,26.3,80.9,26.6,80.5,26.6z"/>
		</g>
		<g>
			<path class="st1" d="M78.1,24.1h-6.2c-0.3,0-0.6-0.3-0.6-0.6s0.3-0.6,0.6-0.6h6.2c0.3,0,0.6,0.3,0.6,0.6S78.4,24.1,78.1,24.1z"/>
		</g>
		<g>
			<path class="st1" d="M78.1,25.9h-6.2c-0.3,0-0.6-0.3-0.6-0.6s0.3-0.6,0.6-0.6h6.2c0.3,0,0.6,0.3,0.6,0.6S78.4,25.9,78.1,25.9z"/>
		</g>
	</g>
	<g>
		<g>
			<g>
				<g>
					<path class="st1" d="M12.8,20c-0.3,0-0.6-0.2-0.6-0.6l-0.2-4.7c0-0.3,0.2-0.6,0.6-0.6c0.3,0,0.6,0.2,0.6,0.6l0.2,4.7
						C13.4,19.7,13.2,20,12.8,20C12.9,20,12.8,20,12.8,20z"/>
				</g>
			</g>
			<g>
				<g>
					<path class="st1" d="M9.8,20.1C9.8,20.1,9.8,20.1,9.8,20.1c-0.4,0-0.6-0.3-0.6-0.6l0.2-4.7c0-0.3,0.3-0.6,0.6-0.5
						c0.3,0,0.6,0.3,0.5,0.6l-0.2,4.7C10.3,19.8,10.1,20.1,9.8,20.1z"/>
				</g>
			</g>
			<g>
				<g>
					<path class="st1" d="M11.2,20C11.2,20,11.2,20,11.2,20c-0.3,0-0.6-0.3-0.6-0.6l0.2-4.7c0-0.3,0.3-0.6,0.6-0.6
						c0.3,0,0.6,0.3,0.6,0.6l-0.2,4.7C11.8,19.8,11.5,20,11.2,20z"/>
				</g>
			</g>
			<g>
				<g>
					<path class="st1" d="M14.4,20c-0.3,0-0.6-0.2-0.6-0.6l-0.2-4.7c0-0.3,0.2-0.6,0.5-0.6c0.3,0,0.6,0.2,0.6,0.5l0.2,4.7
						C15,19.7,14.7,20,14.4,20C14.4,20,14.4,20,14.4,20z"/>
				</g>
			</g>
			<g>
				<g>
					<path class="st1" d="M12.1,23.6c-1.6,0-2.9-1.8-2.9-4.1c0-0.3,0.3-0.6,0.6-0.6h4.6c0.3,0,0.6,0.3,0.6,0.6
						C14.9,21.8,13.7,23.6,12.1,23.6z M10.4,20.1c0.2,1.3,0.9,2.4,1.7,2.4c0.8,0,1.5-1,1.7-2.4H10.4z"/>
				</g>
			</g>
			<g>
				<g>
					<path class="st1" d="M11.9,36c-1.1,0-2-1.4-2-3.2c0-1.5,1.3-9.3,1.4-9.7c0-0.3,0.3-0.5,0.6-0.5c0.3,0,0.5,0.2,0.6,0.5
						c0.1,0.3,1.4,8.2,1.4,9.7C13.9,34.6,13,36,11.9,36z M11.9,26.8c-0.4,2.5-0.8,5.3-0.8,6c0,1.3,0.5,2,0.8,2c0.3,0,0.8-0.8,0.8-2
						C12.7,32.1,12.3,29.3,11.9,26.8z"/>
				</g>
			</g>
		</g>
		<g>
			<g>
				<path class="st1" d="M38.8,35.9C38.8,35.9,38.8,35.9,38.8,35.9c-1.1,0-2-1.4-1.9-3.2c0-0.6,0.3-2.4,0.8-5.4c-2.1-0.7-2-4-1.9-5
					c0.1-0.6,0.4-2.5,0.8-4.3c0.8-3.4,1.3-3.8,1.7-3.9c0.1,0,0.1,0,0.2,0c0.2,0,0.4,0,0.6,0.3c1.1,1.1,1.3,8.5,1.2,9.9l0,0.3
					c0,0.7-0.1,1.2-0.2,1.7c0.5,3.6,0.8,5.8,0.8,6.5C40.8,34.5,39.9,35.9,38.8,35.9z M38.5,15.6c-0.6,1.5-1.4,5.5-1.5,6.8
					c-0.1,1.5,0.1,3.4,1.1,3.8c0.1,0,0.2,0.1,0.3,0.1c0.2,0,0.3,0.1,0.4,0.2c0.1,0.1,0.1,0.3,0.1,0.4c-0.7,4.2-0.9,5.4-0.9,5.7
					c0,1.3,0.5,2,0.8,2.1l0,0.6l0-0.6c0.3,0,0.8-0.7,0.8-2c0-0.6-0.3-2.9-0.8-6.5c0-0.1,0-0.2,0-0.2c0.1-0.4,0.1-0.9,0.2-1.6l0-0.3
					C39.2,22.2,38.9,17.3,38.5,15.6z"/>
			</g>
		</g>
		<g>
			<g>
				<g>
					<path class="st1" d="M24.9,34.8c-5.4,0-9.8-4.4-9.8-9.8c0-5.4,4.4-9.8,9.8-9.8c5.4,0,9.8,4.4,9.8,9.8
						C34.7,30.3,30.3,34.8,24.9,34.8z M24.9,16.3c-4.8,0-8.7,3.9-8.7,8.7c0,4.8,3.9,8.7,8.7,8.7c4.8,0,8.7-3.9,8.7-8.7
						C33.6,20.1,29.7,16.3,24.9,16.3z"/>
				</g>
			</g>
			<g>
				<g>
					<path class="st1" d="M24.9,31.7c-3.7,0-6.8-3-6.8-6.8c0-3.7,3-6.8,6.8-6.8c3.7,0,6.8,3,6.8,6.8C31.7,28.7,28.6,31.7,24.9,31.7z
						 M24.9,19.3c-3.1,0-5.6,2.5-5.6,5.6c0,3.1,2.5,5.6,5.6,5.6c3.1,0,5.6-2.5,5.6-5.6C30.5,21.8,28,19.3,24.9,19.3z"/>
				</g>
			</g>
		</g>
	</g>
</g>
</svg>
