<?xml version="1.0" encoding="utf-8"?>
<!-- Generator: Adobe Illustrator 19.2.0, SVG Export Plug-In . SVG Version: 6.00 Build 0)  -->
<svg version="1.1" id="Layer_1" xmlns="http://www.w3.org/2000/svg" xmlns:xlink="http://www.w3.org/1999/xlink" x="0px" y="0px"
	 viewBox="0 0 236.2 70" style="enable-background:new 0 0 236.2 70;" xml:space="preserve">
<style type="text/css">
	.st0{fill:#FFFFFF;}
	.st1{fill:url(#SVGID_1_);}
	.st2{fill:#E1E1E1;}
	.st3{clip-path:url(#SVGID_3_);fill:url(#SVGID_4_);}
	.st4{clip-path:url(#SVGID_3_);fill:url(#SVGID_5_);}
	.st5{clip-path:url(#SVGID_3_);fill:url(#SVGID_6_);}
	.st6{clip-path:url(#SVGID_3_);fill:url(#SVGID_7_);}
</style>
<g>
	<g>
		<path class="st0" d="M234.6,61.7c0,3.7-3,6.7-6.7,6.7H8.3c-3.7,0-6.7-3-6.7-6.7V8.3c0-3.7,3-6.7,6.7-6.7h219.6
			c3.7,0,6.7,3,6.7,6.7L234.6,61.7L234.6,61.7z"/>
		<path d="M227.9,70H8.3C3.7,70,0,66.3,0,61.7V8.3C0,3.7,3.7,0,8.3,0h219.6c4.6,0,8.3,3.7,8.3,8.3v53.5
			C236.2,66.3,232.5,70,227.9,70L227.9,70z"/>
		<path d="M234.6,61.7c0,3.7-3,6.7-6.7,6.7H8.3c-3.7,0-6.7-3-6.7-6.7V8.3c0-3.7,3-6.7,6.7-6.7h219.6c3.7,0,6.7,3,6.7,6.7L234.6,61.7
			L234.6,61.7z"/>
		
			<linearGradient id="SVGID_1_" gradientUnits="userSpaceOnUse" x1="173.2263" y1="821.188" x2="173.2263" y2="758.0923" gradientTransform="matrix(1 0 0 1 0 -751)">
			<stop  offset="0" style="stop-color:#1A1A1A;stop-opacity:0.1"/>
			<stop  offset="0.1235" style="stop-color:#212121;stop-opacity:0.1506"/>
			<stop  offset="0.3085" style="stop-color:#353535;stop-opacity:0.2265"/>
			<stop  offset="0.5321" style="stop-color:#575757;stop-opacity:0.3181"/>
			<stop  offset="0.7834" style="stop-color:#858585;stop-opacity:0.4212"/>
			<stop  offset="1" style="stop-color:#B3B3B3;stop-opacity:0.51"/>
		</linearGradient>
		<path class="st1" d="M227.9,0H110.3l46.1,70h71.6c4.6,0,8.3-3.7,8.3-8.3V8.3C236.2,3.7,232.5,0,227.9,0z"/>
	</g>
	<g>
		<path class="st2" d="M82,11.8c1.6,0,2.7,0.7,3.4,1.5l-1.1,1.3c-0.6-0.6-1.2-0.9-2.3-0.9c-2,0-3.4,1.6-3.4,4.1
			c0,2.6,1.2,4.2,3.5,4.2c0.6,0,1.3-0.2,1.6-0.5v-2.5h-2.2v-1.7h4v5c-0.8,0.7-2.1,1.4-3.7,1.4c-3,0-5.4-2.1-5.4-5.9
			C76.6,14,78.9,11.8,82,11.8z"/>
		<path class="st2" d="M91.3,14.6c2.3,0,3.6,1.7,3.6,4.1c0,0.4,0,0.7-0.1,0.9h-5.5c0.2,1.6,1.2,2.4,2.5,2.4c0.7,0,1.4-0.2,2-0.6
			l0.7,1.3c-0.8,0.5-1.9,0.9-2.9,0.9c-2.4,0-4.2-1.7-4.2-4.5C87.4,16.4,89.3,14.6,91.3,14.6z M93.1,18.4c0-1.4-0.6-2.2-1.7-2.2
			c-1,0-1.9,0.8-2.1,2.2H93.1z"/>
		<path class="st2" d="M96.8,16.4h-1.2v-1.5l1.3-0.1l0.2-2.3h1.7v2.3h2.2v1.6h-2.2v4.1c0,1,0.4,1.5,1.2,1.5c0.3,0,0.6-0.1,0.9-0.2
			l0.3,1.5c-0.5,0.2-1.1,0.3-1.7,0.3c-2,0-2.7-1.3-2.7-3.1V16.4z"/>
		<path class="st2" d="M106.2,12.2c0-0.7,0.5-1.2,1.2-1.2c0.7,0,1.2,0.5,1.2,1.2c0,0.7-0.5,1.1-1.2,1.1
			C106.8,13.3,106.2,12.9,106.2,12.2z M106.5,14.9h2v8.6h-2V14.9z"/>
		<path class="st2" d="M111.3,16.4h-1.2v-1.5l1.3-0.1l0.2-2.3h1.7v2.3h2.2v1.6h-2.2v4.1c0,1,0.4,1.5,1.2,1.5c0.3,0,0.6-0.1,0.9-0.2
			l0.3,1.5c-0.5,0.2-1.1,0.3-1.7,0.3c-2,0-2.7-1.3-2.7-3.1V16.4z"/>
		<path class="st2" d="M124.5,14.6c2.2,0,4.1,1.6,4.1,4.5c0,2.9-1.9,4.5-4.1,4.5c-2.1,0-4.1-1.6-4.1-4.5
			C120.4,16.3,122.3,14.6,124.5,14.6z M124.5,22c1.3,0,2-1.1,2-2.9c0-1.7-0.8-2.9-2-2.9c-1.3,0-2,1.1-2,2.9
			C122.5,20.9,123.2,22,124.5,22z"/>
		<path class="st2" d="M130.6,14.9h1.7l0.1,1.2h0.1c0.8-0.8,1.6-1.4,2.8-1.4c1.8,0,2.6,1.2,2.6,3.4v5.4h-2v-5.1
			c0-1.4-0.4-1.9-1.3-1.9c-0.8,0-1.2,0.4-2,1.1v6h-2V14.9z"/>
	</g>
	<g>
		<path class="st0" d="M177.2,53.6c-0.9,0-1.7-0.2-2.5-0.5c-0.8-0.3-1.4-0.9-1.9-1.6h-0.2c0.1,0.8,0.2,1.6,0.2,2.3v5.8h-2.1V39.4
			h1.7l0.3,1.9h0.1c0.5-0.8,1.2-1.3,1.9-1.7c0.7-0.3,1.6-0.5,2.5-0.5c1.9,0,3.3,0.6,4.3,1.9c1,1.3,1.5,3,1.5,5.3
			c0,2.3-0.5,4.1-1.5,5.4C180.5,53,179.1,53.6,177.2,53.6z M176.9,40.9c-1.4,0-2.5,0.4-3.1,1.2c-0.6,0.8-1,2.1-1,3.8v0.5
			c0,2,0.3,3.4,1,4.2c0.7,0.8,1.7,1.3,3.2,1.3c1.2,0,2.2-0.5,2.8-1.5c0.7-1,1-2.3,1-4c0-1.7-0.3-3.1-1-4
			C179.1,41.4,178.2,40.9,176.9,40.9z"/>
		<path class="st0" d="M187.9,53.4h-2.1V33.5h2.1V53.4z"/>
		<path class="st0" d="M200.1,53.4l-0.4-2h-0.1c-0.7,0.9-1.4,1.5-2.1,1.8c-0.7,0.3-1.6,0.5-2.6,0.5c-1.4,0-2.5-0.4-3.3-1.1
			c-0.8-0.7-1.2-1.7-1.2-3.1c0-2.8,2.3-4.3,6.8-4.4l2.4-0.1v-0.9c0-1.1-0.2-1.9-0.7-2.4c-0.5-0.5-1.2-0.8-2.3-0.8
			c-1.2,0-2.5,0.4-4,1.1l-0.7-1.6c0.7-0.4,1.4-0.7,2.3-0.9c0.8-0.2,1.6-0.3,2.5-0.3c1.7,0,2.9,0.4,3.7,1.1c0.8,0.7,1.2,1.9,1.2,3.6
			v9.6H200.1z M195.3,51.9c1.3,0,2.4-0.4,3.1-1.1c0.8-0.7,1.1-1.7,1.1-3v-1.3l-2.1,0.1c-1.7,0.1-2.9,0.3-3.6,0.8
			c-0.7,0.5-1.1,1.2-1.1,2.2c0,0.8,0.2,1.4,0.7,1.7C193.9,51.7,194.5,51.9,195.3,51.9z"/>
		<path class="st0" d="M202.9,39.4h2.3l3.1,8c0.7,1.8,1.1,3.1,1.2,3.9h0.1c0.1-0.4,0.3-1.2,0.7-2.2c0.4-1.1,1.5-4.3,3.5-9.7h2.3
			l-6,15.9c-0.6,1.6-1.3,2.7-2.1,3.4c-0.8,0.7-1.8,1-2.9,1c-0.6,0-1.3-0.1-1.9-0.2v-1.7c0.5,0.1,1,0.2,1.6,0.2
			c1.5,0,2.5-0.8,3.1-2.5l0.8-2L202.9,39.4z"/>
	</g>
	<g>
		<path class="st0" d="M138,40.7c0.7,0.6,2.1,1.7,2.1,4c0,2.2-1.2,3.2-2.5,4.2c-0.4,0.4-0.8,0.8-0.8,1.4c0,0.6,0.4,1,0.8,1.3
			l1.1,0.8c1.3,1.1,2.5,2.1,2.5,4.1c0,2.8-2.7,5.5-7.7,5.5c-4.2,0-6.3-2-6.3-4.2c0-1.1,0.5-2.5,2.3-3.6c1.8-1.1,4.3-1.3,5.6-1.3
			c-0.4-0.5-0.9-1.1-0.9-2c0-0.5,0.1-0.8,0.3-1.1c-0.3,0-0.6,0.1-0.9,0.1c-3.1,0-4.9-2.3-4.9-4.6c0-1.3,0.6-2.8,1.9-3.9
			c1.7-1.4,3.7-1.6,5.2-1.6h6l-1.9,1.1H138z M135.9,53.7c-0.2,0-0.4,0-0.7,0c-0.3,0-1.8,0.1-3.1,0.5c-0.6,0.2-2.5,0.9-2.5,3
			c0,2.1,2,3.6,5.2,3.6c2.8,0,4.3-1.3,4.3-3.2C139.1,56.1,138.1,55.3,135.9,53.7z M136.7,48.1c0.7-0.7,0.7-1.6,0.7-2.1
			c0-2.1-1.3-5.4-3.7-5.4c-0.8,0-1.6,0.4-2.1,1c-0.5,0.6-0.6,1.4-0.6,2.2c0,2,1.1,5.2,3.7,5.2C135.5,48.9,136.3,48.6,136.7,48.1z"/>
		<path class="st0" d="M119.5,53.2c-4.6,0-7.1-3.6-7.1-6.9c0-3.8,3.1-7.1,7.6-7.1c4.3,0,7,3.4,7,6.9C127,49.6,124.3,53.2,119.5,53.2
			z M123.2,50.8c0.7-0.9,0.9-2.1,0.9-3.2c0-2.6-1.2-7.5-4.9-7.5c-1,0-1.9,0.4-2.6,1c-1.1,1-1.3,2.3-1.3,3.6c0,2.9,1.4,7.7,5,7.7
			C121.3,52.3,122.5,51.8,123.2,50.8z"/>
		<path class="st0" d="M103.7,53.2c-4.6,0-7.1-3.6-7.1-6.9c0-3.8,3.1-7.1,7.6-7.1c4.3,0,7,3.4,7,6.9
			C111.1,49.6,108.5,53.2,103.7,53.2z M107.4,50.8c0.7-0.9,0.9-2.1,0.9-3.2c0-2.6-1.2-7.5-4.9-7.5c-1,0-1.9,0.4-2.6,1
			c-1.1,1-1.3,2.3-1.3,3.6c0,2.9,1.4,7.7,5,7.7C105.5,52.3,106.7,51.8,107.4,50.8z"/>
		<path class="st0" d="M94.3,52.8l-4.2,1c-1.7,0.3-3.2,0.5-4.8,0.5c-8.1,0-11.2-6-11.2-10.6c0-5.7,4.4-11,11.9-11
			c1.6,0,3.1,0.2,4.5,0.6c2.2,0.6,3.2,1.4,3.9,1.8l-2.4,2.3l-1,0.2l0.7-1.2c-1-1-2.8-2.8-6.3-2.8c-4.6,0-8.1,3.5-8.1,8.7
			c0,5.5,4,10.7,10.4,10.7c1.9,0,2.9-0.4,3.7-0.7v-4.7l-4.4,0.2l2.3-1.3h6.2l-0.8,0.7c-0.2,0.2-0.2,0.2-0.3,0.5
			c0,0.3-0.1,1.1-0.1,1.4V52.8z"/>
		<path class="st0" d="M147.3,51.9c-1-0.1-1.2-0.3-1.2-1.4v-0.3V33.9c0-0.1,0-0.1,0-0.2c0.1-1,0.4-1.2,1.3-1.7h-4.2L141,33h2.2v0v0
			v17.2v1c0,0.6-0.1,0.7-0.8,1.6h5.2l1.1-0.6C148.3,52,147.8,52,147.3,51.9z"/>
		<path class="st0" d="M159.2,52.2c-0.3,0.2-0.6,0.4-1,0.5c-1,0.4-2,0.6-2.8,0.6c-0.9,0-2.4-0.1-3.9-1.1c-2.1-1.5-3-4-3-6.2
			c0-4.5,3.7-6.7,6.7-6.7c1,0,2.1,0.3,3,0.8c1.5,1,1.8,2.2,2,2.9l-6.9,2.8l-2.2,0.2c0.7,3.7,3.2,5.9,6,5.9c1.5,0,2.6-0.5,3.6-1
			L159.2,52.2z M156.5,43.5c0.6-0.2,0.8-0.4,0.8-0.8c0-1.2-1.3-2.5-2.9-2.5c-1.2,0-3.4,0.9-3.4,4.1c0,0.5,0.1,1,0.1,1.5L156.5,43.5z
			"/>
		<g>
			<path class="st0" d="M162,39.4v1.9h-0.2v-1.9h-0.6v-0.2h1.5v0.2H162z"/>
			<path class="st0" d="M164.6,41.3v-1.9h0l-0.6,1.9h-0.2l-0.6-1.9h0v1.9H163v-2.1h0.4l0.5,1.7h0l0.5-1.7h0.4v2.1H164.6z"/>
		</g>
	</g>
	<g id="PLAY_3_">
		<defs>
			<path id="SVGID_2_" d="M50.2,26.7l-9.8-5.4c0,0-17.9-9.9-19-10.5c-1.1-0.6-2.1-0.2-2.1,1c0,2,0,21.2,0,21.2s0,20.7,0,21.6
				c0,0.9,0.8,1.3,1.7,0.8c0.9-0.5,19.4-10.7,19.4-10.7l9.8-5.4c0,0,8.3-4.6,9.5-5.2c1.1-0.6,1-1.5,0.1-1.9
				C58.8,31.5,50.2,26.7,50.2,26.7z"/>
		</defs>
		<clipPath id="SVGID_3_">
			<use xlink:href="#SVGID_2_"  style="overflow:visible;"/>
		</clipPath>
		<linearGradient id="SVGID_4_" gradientUnits="userSpaceOnUse" x1="31.4909" y1="9.7267" x2="31.4909" y2="56.0577">
			<stop  offset="0" style="stop-color:#207CB0"/>
			<stop  offset="0.3757" style="stop-color:#3CB2BF"/>
			<stop  offset="0.7961" style="stop-color:#58E9CE"/>
			<stop  offset="1" style="stop-color:#63FFD4"/>
		</linearGradient>
		<polygon class="st3" points="19.3,9.7 19.3,32.9 19.3,56.1 43.7,32.9 		"/>
		<linearGradient id="SVGID_5_" gradientUnits="userSpaceOnUse" x1="19.3124" y1="21.2244" x2="50.2106" y2="21.2244">
			<stop  offset="0" style="stop-color:#4BC3AE"/>
			<stop  offset="1" style="stop-color:#DEE999"/>
		</linearGradient>
		<polygon class="st4" points="50.2,26.7 40.4,21.2 19.3,9.6 19.3,9.7 43.7,32.9 		"/>
		<linearGradient id="SVGID_6_" gradientUnits="userSpaceOnUse" x1="34.7615" y1="32.8913" x2="34.7615" y2="56.2235">
			<stop  offset="0" style="stop-color:#EC403D"/>
			<stop  offset="0.384" style="stop-color:#C93B75"/>
			<stop  offset="0.7988" style="stop-color:#A636AC"/>
			<stop  offset="1" style="stop-color:#9934C2"/>
		</linearGradient>
		<polygon class="st5" points="19.3,56.1 19.3,56.2 40.4,44.6 50.2,39.1 43.7,32.9 		"/>
		<linearGradient id="SVGID_7_" gradientUnits="userSpaceOnUse" x1="52.5576" y1="26.6698" x2="52.5576" y2="39.1137">
			<stop  offset="0" style="stop-color:#FF8877"/>
			<stop  offset="0.6121" style="stop-color:#FFB175"/>
			<stop  offset="1" style="stop-color:#FFC774"/>
		</linearGradient>
		<polygon class="st6" points="50.2,26.7 43.7,32.9 50.2,39.1 61.4,32.9 		"/>
	</g>
</g>
</svg>
