<?xml version="1.0" encoding="utf-8"?>
<!-- Generator: Adobe Illustrator 19.2.0, SVG Export Plug-In . SVG Version: 6.00 Build 0)  -->
<svg version="1.1" id="Layer_1" xmlns="http://www.w3.org/2000/svg" xmlns:xlink="http://www.w3.org/1999/xlink" x="0px" y="0px"
	 viewBox="0 0 200 177.1" style="enable-background:new 0 0 200 177.1;" xml:space="preserve">
<style type="text/css">
	.st0{fill:#5CB947;}
</style>
<g>
	<path class="st0" d="M108.3,0h-81C18.6,0,4.2,1.7,4.2,13.2c0,16.1,18.6,3.7,18.1,29.3l-2,86.2C19.6,165,0,145.1,0,163
		c0,9.9,10.7,14.2,19.1,14.2c7.2,0,14.2-0.2,21.1-0.7c7-0.2,14.2-0.5,21.1-0.5c7,0,13.7,0.2,21.4,0.5c4.1,0.3,1.8,0.5,6.7,0.6
		c0.6-8.8-0.1-16.7-4.4-22c0,0-9-8.1-11.7-11.6c-9.4-12-2.5-42.5-0.1-60.3c1.3-9.4,7.4-53,10.1-54.6c0.6-0.3,1-0.1,1.2,0
		c0.8,0.5,1.3,11.9,1.4,16.8c0.3,10.9,0.3,23.2,0.9,35.2c0.2,5.1-0.2,15.3,3.4,15.1c4.1-0.2,5.5-7.9,5.9-13c1.2-17.2,1.9-54,4.6-54
		c3,0,4.2,33.3,5.3,52.8c0.3,4.6-0.1,15.4,4.6,15.1c3.8-0.2,3.7-10.3,4.1-14.7c1.6-17.3,0.8-47.1,3.7-53.2c0.3-0.5,1.5-0.4,1.8,0.1
		c3.4,6,12,70.6,12.4,84.2c0.3,11.5-0.7,22.5-6,30c-5.6,7.9-15.8,7.6-17.8,21.2c-0.6,4.2-0.3,8.6,0.4,13.1c0.2,0,0.5,0,0.7,0
		c62.9,0,89.9-43.5,89.9-89.7C200,42.7,177.4,0,108.3,0z"/>
</g>
</svg>
