<?xml version="1.0" encoding="utf-8"?>
<!-- Generator: Adobe Illustrator 19.2.0, SVG Export Plug-In . SVG Version: 6.00 Build 0)  -->
<svg version="1.1" id="Layer_1" xmlns="http://www.w3.org/2000/svg" xmlns:xlink="http://www.w3.org/1999/xlink" x="0px" y="0px"
	 viewBox="0 0 565.6 462.6" style="enable-background:new 0 0 565.6 462.6;" xml:space="preserve">
<style type="text/css">
	.st0{clip-path:url(#SVGID_2_);}
	.st1{fill:url(#SVGID_3_);}
	.st2{fill:url(#SVGID_4_);}
	.st3{fill:url(#SVGID_5_);}
	.st4{clip-path:url(#SVGID_2_);fill:url(#SVGID_6_);}
	.st5{fill:url(#SVGID_7_);}
	.st6{fill:url(#SVGID_8_);}
	.st7{fill:url(#SVGID_9_);}
	.st8{fill:url(#SVGID_10_);}
	.st9{fill:url(#SVGID_11_);}
	.st10{fill:url(#SVGID_12_);}
	.st11{fill:url(#SVGID_13_);}
	.st12{fill:url(#SVGID_14_);}
	.st13{fill:#FFFFFF;}
	.st14{fill:url(#SVGID_15_);}
	.st15{fill:none;}
	.st16{fill:url(#SVGID_16_);}
	.st17{fill:url(#SVGID_17_);}
	.st18{fill:url(#SVGID_18_);}
	.st19{fill:url(#SVGID_19_);}
	.st20{fill:url(#SVGID_20_);}
	.st21{fill:url(#SVGID_21_);}
	.st22{fill:url(#SVGID_22_);}
	.st23{fill:url(#SVGID_23_);}
	.st24{fill:url(#SVGID_24_);}
	.st25{fill:url(#SVGID_25_);}
	.st26{fill:url(#SVGID_26_);}
	.st27{fill:url(#SVGID_27_);}
	.st28{fill:url(#SVGID_28_);}
	.st29{fill:url(#SVGID_29_);}
	.st30{fill:url(#SVGID_30_);}
	.st31{fill:url(#SVGID_31_);}
	.st32{fill:url(#SVGID_32_);}
	.st33{fill:url(#SVGID_33_);}
	.st34{fill:url(#SVGID_34_);}
	.st35{fill:url(#SVGID_35_);}
	.st36{fill:url(#SVGID_36_);}
	.st37{fill:url(#SVGID_37_);}
	.st38{fill:url(#SVGID_38_);}
	.st39{fill:url(#SVGID_39_);}
	.st40{fill:url(#SVGID_40_);}
	.st41{fill:url(#SVGID_41_);}
	.st42{fill:url(#SVGID_42_);}
	.st43{fill:url(#SVGID_43_);}
	.st44{fill:url(#SVGID_44_);}
	.st45{fill:url(#SVGID_45_);}
	.st46{fill:#E6E6E6;}
	.st47{fill:url(#SVGID_46_);}
	.st48{fill:url(#SVGID_47_);}
	.st49{fill:url(#SVGID_48_);}
	.st50{fill:url(#SVGID_49_);}
	.st51{fill:url(#SVGID_50_);}
	.st52{fill:url(#SVGID_51_);}
	.st53{fill:url(#SVGID_52_);}
	.st54{fill:url(#SVGID_53_);}
	.st55{fill:url(#SVGID_54_);}
	.st56{fill:url(#SVGID_55_);}
	.st57{fill:url(#SVGID_56_);}
	.st58{fill:url(#SVGID_57_);}
	.st59{fill:url(#SVGID_58_);}
</style>
<g>
	<defs>
		<rect id="SVGID_1_" width="565.6" height="462.6"/>
	</defs>
	<clipPath id="SVGID_2_">
		<use xlink:href="#SVGID_1_"  style="overflow:visible;"/>
	</clipPath>
	<g class="st0">
		<linearGradient id="SVGID_3_" gradientUnits="userSpaceOnUse" x1="60.3621" y1="396.7267" x2="280.7483" y2="396.7267">
			<stop  offset="0" style="stop-color:#FFFFFF"/>
			<stop  offset="1" style="stop-color:#000000"/>
		</linearGradient>
		<path class="st1" d="M62.8,469.4c6-5.2,4-7.6,8-14.6c4.5-7.8,15.8-18.9,21.9-25.3c12.6-13.1,26.2-25.1,39.8-36.9
			c13.9-12,27.4-24.5,41.7-35.9c7.1-5.6,14.3-11.1,21.4-16.9c7.1-5.8,13.8-12.1,20.7-18c4.8-4.1,9.6-8.1,14.6-11.8
			c3.6-2.7,7.5-5,11-7.8c5.4-4.4,10.8-8.9,16.1-13.4c3.9-3.2,7.7-6.5,11.6-9.7c0,0,3.5,6.6,3.7,7c2.9,5.8,5.4,11.9,7.4,18.1
			c0-0.5,0-1.1,0-1.6c-13.4,13.1-26.5,26.5-39.9,39.5c-7.4,7.2-14.8,14.4-22.3,21.6c-25.2,24.3-50,48.9-74.7,73.7
			c-24.1,24.3-50.2,47.6-68.8,77.3c-0.2,0.4,0.2,1.3,0,1.6c18.5-29.7,44.7-53,68.8-77.3c24.7-24.8,49.5-49.5,74.7-73.7
			c7.4-7.2,14.9-14.4,22.3-21.6c13.4-13,26.6-26.4,39.9-39.5c0.1-0.1,0.1-1.4,0-1.6c-2.5-7.9-5.9-15.5-9.8-22.8
			c-0.1-0.3-1.2-2.5-1.4-2.3c-0.9,0.7-1.7,1.4-2.6,2.2c-7.6,6.4-15.1,12.8-22.8,19.1c-4.3,3.5-8.8,6.4-13.2,9.7
			c-7.4,5.5-14.3,11.6-21.3,17.7c-13.7,12.1-28.2,23.1-42.3,34.6c-9.9,8.1-21.4,16.1-31.1,24.5c-9.8,8.5-19.9,16.1-29.4,25
			c-9.3,8.6-24.2,22.4-32.5,32.2c-28.8,34.2-2.9,17.9-11.6,25.4C62.5,468,63,469.2,62.8,469.4L62.8,469.4z"/>
	</g>
	<g class="st0">
		<linearGradient id="SVGID_4_" gradientUnits="userSpaceOnUse" x1="218.3819" y1="310.2229" x2="268.6783" y2="310.2229">
			<stop  offset="0" style="stop-color:#FFFFFF"/>
			<stop  offset="1" style="stop-color:#000000"/>
		</linearGradient>
		<path class="st2" d="M268.7,290.3c-17.3,12.2-30.4,24.8-50.3,39.8"/>
		<g>
			<linearGradient id="SVGID_5_" gradientUnits="userSpaceOnUse" x1="218.3819" y1="310.2229" x2="268.6783" y2="310.2229">
				<stop  offset="0" style="stop-color:#FFFFFF"/>
				<stop  offset="1" style="stop-color:#000000"/>
			</linearGradient>
			<path class="st3" d="M268.7,290.3c-2.6,1.5-4.3,2.6-7.2,4.8c-3.2,2.2-18.3,14.6-18.3,14.6c0,0-15.1,12.4-18.2,14.8
				c-2.8,2.2-4.4,3.6-6.6,5.6c2.5-1.6,4.2-2.7,7.1-4.9c3.1-2.3,18.2-14.8,18.2-14.8c0,0,15.1-12.4,18.3-14.6
				C264.8,293.6,266.4,292.3,268.7,290.3z"/>
		</g>
	</g>
	
		<linearGradient id="SVGID_6_" gradientUnits="userSpaceOnUse" x1="264.0463" y1="435.8266" x2="317.356" y2="435.8266" gradientTransform="matrix(-0.7399 0.6727 -0.6727 -0.7399 804.2499 465.9837)">
		<stop  offset="0" style="stop-color:#FFFFFF"/>
		<stop  offset="1" style="stop-color:#000000"/>
	</linearGradient>
	<path class="st4" d="M289.8,371.9c5.2-21.5,6.9-40.2,12.3-65.7"/>
	<g class="st0">
		
			<linearGradient id="SVGID_7_" gradientUnits="userSpaceOnUse" x1="263.4418" y1="436.1068" x2="317.356" y2="436.1068" gradientTransform="matrix(-0.7399 0.6727 -0.6727 -0.7399 804.2499 465.9837)">
			<stop  offset="0" style="stop-color:#FFFFFF"/>
			<stop  offset="1" style="stop-color:#000000"/>
		</linearGradient>
		<path class="st5" d="M289.8,371.9c0.9-3,1.5-5,2.3-8.7c1-4,4.4-24,4.4-24c0,0,3.4-20.1,4.2-24.1c0.7-3.7,3.4-10.2,1.2-9.4
			c-0.9,3-1.2,5.6-1.9,9.3c-0.9,4-4.2,24.1-4.2,24.1c0,0-3.4,20.1-4.3,24C290.7,366.7,290.3,368.8,289.8,371.9z"/>
	</g>
	<g class="st0">
		
			<linearGradient id="SVGID_8_" gradientUnits="userSpaceOnUse" x1="84.4918" y1="647.906" x2="139.5034" y2="647.906" gradientTransform="matrix(0.2246 -0.9744 0.9744 0.2246 -353.7076 79.3778)">
			<stop  offset="0" style="stop-color:#FFFFFF"/>
			<stop  offset="1" style="stop-color:#000000"/>
		</linearGradient>
		<path class="st6" d="M290.2,84.6c0.8,3,1.4,5.1,2.7,8.6c1.3,3.8,9.2,22.4,9.2,22.4c0,0,7.9,18.6,9.3,22.3
			c1.4,3.5,2.6,10.4,4.1,8.5c-0.9-3-2-5.3-3.4-8.8c-1.4-3.8-9.3-22.4-9.3-22.4c0,0-7.9-18.6-9.2-22.4
			C292.2,89.4,291.4,87.5,290.2,84.6z"/>
	</g>
	<g class="st0">
		
			<linearGradient id="SVGID_9_" gradientUnits="userSpaceOnUse" x1="217.8255" y1="401.8013" x2="273.591" y2="401.8013" gradientTransform="matrix(-0.4411 0.8975 -0.8975 -0.4411 801.9521 290.4005)">
			<stop  offset="0" style="stop-color:#FFFFFF"/>
			<stop  offset="1" style="stop-color:#000000"/>
		</linearGradient>
		<path class="st7" d="M338.4,367.4c-0.1-3.1-0.3-5.3-0.8-9c-0.4-4.1-4.1-24.1-4.2-24.1c0,0-3.8-20-4.3-24c-0.4-2.6-0.4-8.2-1-9.9
			c-0.2-0.7-0.6,0.2-1.2,0.7c0.2,3.1,0.8,5.7,1.4,9.4c0.6,4,4.3,24.1,4.3,24c0,0,3.7,20,4.2,24.1
			C337.4,362.3,337.8,364.4,338.4,367.4z"/>
	</g>
	<g class="st0">
		<linearGradient id="SVGID_10_" gradientUnits="userSpaceOnUse" x1="231.798" y1="317.2166" x2="272.857" y2="317.2166">
			<stop  offset="0" style="stop-color:#FFFFFF"/>
			<stop  offset="1" style="stop-color:#000000"/>
		</linearGradient>
		<path class="st8" d="M272.9,296.9c-14.1,12.2-27.1,27.7-41.1,40.6"/>
		<g>
			<linearGradient id="SVGID_11_" gradientUnits="userSpaceOnUse" x1="231.798" y1="317.2166" x2="272.857" y2="317.2166">
				<stop  offset="0" style="stop-color:#FFFFFF"/>
				<stop  offset="1" style="stop-color:#000000"/>
			</linearGradient>
			<path class="st9" d="M272.9,296.9c-2.1,1.6-3.6,2.7-6,4.9c-2.6,2.3-15,14.9-14.9,15c0,0-12.2,12.7-14.8,15.1
				c-2.3,2.3-3.6,3.6-5.4,5.7c2.1-1.7,3.5-2.8,5.9-5.1c2.6-2.4,14.8-15.1,14.8-15.1c0,0,12.3-12.6,14.9-14.9
				C269.7,300.2,271,298.9,272.9,296.9z"/>
		</g>
	</g>
	<g class="st0">
		
			<linearGradient id="SVGID_12_" gradientUnits="userSpaceOnUse" x1="204.4958" y1="571.2876" x2="230.62" y2="571.2876" gradientTransform="matrix(-0.9977 -6.740000e-02 6.740000e-02 -0.9977 438.3344 884.7673)">
			<stop  offset="0" style="stop-color:#FFFFFF"/>
			<stop  offset="1" style="stop-color:#000000"/>
		</linearGradient>
		<path class="st10" d="M245.9,312.1c9.5-7.1,18.4-16.4,27.8-24"/>
		<g>
			
				<linearGradient id="SVGID_13_" gradientUnits="userSpaceOnUse" x1="204.4958" y1="571.2876" x2="230.62" y2="571.2876" gradientTransform="matrix(-0.9977 -6.740000e-02 6.740000e-02 -0.9977 438.3344 884.7673)">
				<stop  offset="0" style="stop-color:#FFFFFF"/>
				<stop  offset="1" style="stop-color:#000000"/>
			</linearGradient>
			<path class="st11" d="M245.9,312.1c1.4-0.9,2.4-1.6,4-2.9c1.8-1.3,10.1-8.8,10.1-8.8c0,0,8.3-7.5,10-8.9c1.6-1.3,2.4-2.1,3.7-3.4
				c-1.4,1-2.4,1.6-3.9,3c-1.7,1.4-10,8.9-10,9c0,0-8.3,7.5-10.1,8.8C248,310.2,247.1,310.9,245.9,312.1z"/>
		</g>
	</g>
	<g class="st0">
		<g>
			<linearGradient id="SVGID_14_" gradientUnits="userSpaceOnUse" x1="304.0769" y1="164.1795" x2="16.8784" y2="209.8224">
				<stop  offset="0" style="stop-color:#FFFFFF"/>
				<stop  offset="1" style="stop-color:#000000"/>
			</linearGradient>
			<path class="st12" d="M-4.5,172.5c27-3.7,72.4,3.7,104.6,8.1c17.4,4.3,70.4,3.1,118.9,3.1c24.3-0.7,47.2-4.7,64.2-6.2
				c8.5-0.9,15.5-1.7,20.3-2c-0.1-0.6-0.7,1.8-1.1,2.3c-0.5,0.8-0.8,1.6-1.2,2.1c-0.8,1.1-1.2,1.7-1.2,1.7c0.3,0.1-7.5,9.1-24,14.8
				c-16.1,6.2-39,10.6-62.9,14.5c-47.6,10.7-100.9,9.5-118.3,12.3c-32.3,3.6-71.5,17.1-95.7,30.2c24.4-12.7,63.5-25.9,95.8-29.5
				c17.4-2.8,70.7-1.6,118.4-12.3c23.9-3.9,46.9-8.3,63-14.5c16.5-5.7,24.5-14.9,24.3-15c0,0,0.4-0.6,1.2-1.7
				c0.4-1.2,2.6-2.9,1.7-5.6c-4.9,0.3-11.9,1-20.4,2c-17,1.5-40,5.5-64.2,6.2c-48.5,0-101.5,1.2-118.8-3.1
				C68,175.5,22.5,168.3-4.5,172.5z"/>
		</g>
	</g>
	<g class="st0">
		<g>
			<g>
				<g>
					<path class="st13" d="M212.4,190.3c4.1,0.7,6.8,1.2,11.7,1.4c2.7,0.1,10.7,0.4,18,0c1.8-0.1,3.6-0.2,5.3-0.3
						c1.7-0.1,3.2-0.3,4.5-0.4c1.3-0.1,2.3-0.2,3.1-0.3c0.7-0.1,1.2-0.1,1.2-0.1s0.4,0,1.2-0.1c0.7-0.1,1.8-0.2,3.1-0.4
						c1.3-0.2,2.8-0.4,4.4-0.6c1.6-0.3,3.4-0.5,5.2-0.8c7.2-1.2,15.1-2.9,17.6-3.5c4.8-1.1,7.4-2,11.3-3.3
						c-4.1,0.6-6.8,1.1-11.6,2.2c-2.6,0.6-10.4,2.3-17.6,3.5c-1.8,0.3-3.6,0.6-5.2,0.8c-1.6,0.2-3.1,0.4-4.4,0.6
						c-1.3,0.2-2.3,0.3-3.1,0.4c-0.7,0.1-1.1,0.1-1.1,0.1s-0.4,0-1.1,0.1c-0.7,0.1-1.8,0.2-3.1,0.3c-1.3,0.1-2.8,0.2-4.4,0.4
						c-1.6,0.1-3.4,0.2-5.2,0.3c-7.3,0.4-15.3,0.1-17.9,0C219.3,190.4,216.5,190.3,212.4,190.3z"/>
				</g>
			</g>
		</g>
	</g>
	<g class="st0">
		<g>
			<g>
				<g>
					<path class="st13" d="M202.4,88c3.8,3.8,6.5,6.3,11.5,10.4c2.7,2.2,11,8.7,18.9,14.1c7.9,5.5,15.4,10.1,15.4,10.1
						s7.4,4.7,15.8,9.4c8.4,4.7,17.7,9.6,20.8,11.2c5.7,3,9.2,4.3,14.2,6.3c-4.6-2.8-7.8-4.5-13.6-7.5c-3.1-1.6-12.4-6.4-20.8-11.1
						c-8.4-4.7-15.8-9.3-15.8-9.3s-7.5-4.6-15.3-10c-7.9-5.4-16.2-11.9-18.9-14.1C209.7,93.3,206.8,91.2,202.4,88z"/>
				</g>
			</g>
		</g>
	</g>
	<g class="st0">
		<g>
			<g>
				<g>
					<path class="st13" d="M174.2,203.9c2,0.3,3.7,0.6,5.5,0.9c1.8,0.2,3.7,0.4,6.2,0.5c2.7,0.1,10.7,0.3,18,0
						c3.7-0.1,7.2-0.4,9.7-0.6c2.6-0.2,4.2-0.4,4.2-0.4s1.7-0.2,4.2-0.5c2.6-0.3,6-0.8,9.7-1.4c7.2-1.2,15.1-2.9,17.7-3.5
						c4.8-1.1,7.4-2,11.3-3.3c-4.1,0.6-6.8,1.1-11.6,2.2c-2.6,0.6-10.4,2.3-17.6,3.5c-3.6,0.6-7.1,1.1-9.6,1.4
						c-2.6,0.3-4.2,0.5-4.2,0.5s-1.7,0.2-4.2,0.4c-2.6,0.2-6,0.5-9.7,0.6c-7.3,0.3-15.3,0.1-17.9,0c-2.4-0.1-4.4-0.2-6.2-0.2
						C178,203.9,176.3,203.9,174.2,203.9z"/>
				</g>
			</g>
		</g>
	</g>
	<g class="st0">
		<g>
			<path class="st13" d="M239,212.2c0.2,4.7,1.2,9.4,2,14c0-0.4,0-0.8,0-1.2c-33.4,7.2-65.8,17.1-97.7,29.6
				c-33.8,13.3-67.3,27.5-100.7,41.6C26.2,303.1,9.9,310-6.4,316.8c-0.2,0.1,0.1,1.2,0,1.2c31.5-13.1,62.8-26.6,94.3-39.7
				c32.5-13.5,65.1-28,98.9-38.2c17.8-5.4,35.9-10,54.1-13.9c0,0,0-1.1,0-1.2c-0.8-4.6-1.8-9.3-2-14C239,211.3,239,211.8,239,212.2
				L239,212.2z"/>
		</g>
	</g>
	<g class="st0">
		<linearGradient id="SVGID_15_" gradientUnits="userSpaceOnUse" x1="-9.7009" y1="298.3009" x2="232.4773" y2="298.3009">
			<stop  offset="0" style="stop-color:#FFFFFF"/>
			<stop  offset="1" style="stop-color:#000000"/>
		</linearGradient>
		<path class="st14" d="M227.9,229.5c2,4.5,3.1,9.3,4.6,14c0-0.3,0-0.5,0-0.8c-34.4,17.8-69.3,34.2-104.7,49.4
			c-17,7.3-33.6,16-50.2,24.3c-7.6,3.8-15.1,7.7-22.6,11.8c-6.9,3.8-55.8,32.6-64.5,39.5c-3.4,2.8,43.3-28.5,43.2-28.4
			c14.8-5.4,28.6-14.4,42.8-21.5c17-8.5,33.8-17.3,51.2-24.9c17.6-7.6,35.1-15.1,52.4-23.3c17.6-8.3,35-17.1,52.3-26.1
			c0,0,0-0.7,0-0.8c-1.4-4.7-2.6-9.5-4.6-14C228,228.9,227.8,229.3,227.9,229.5L227.9,229.5z"/>
	</g>
	<g class="st0">
		<path class="st15" d="M232.5,243.1c-2.6-4.2-0.7-7.7-5.9-13.3"/>
		<path class="st13" d="M232.5,241.9c-1.1-1.8,0.2-6.5,0.2-6.5s-4.1-4.7-6-6.8c0.4,0.4-1.7,1-1.3,1.4c1.8,2,4.5,5.2,5.2,8
			c0.6,2.2,0.9,4.4,2,6.4C232.1,243.7,232.8,242.5,232.5,241.9L232.5,241.9z"/>
	</g>
	<g class="st0">
		<g>
			<path class="st13" d="M222.6,250.9c3.8,6,6.8,12.7,8.9,19.5c0-0.8,0-1.7,0-2.5c-11.3,5.9-22.5,11.8-33.5,18.2
				c-14.3,8.3-26.9,19.8-40.2,29.7c-37.4,27.7-75.7,54.1-113,82c-18.6,13.9-37.1,28.1-54.4,43.7c-0.4,0.4,0.4,2.1,0,2.5
				c32.8-29.5,69.3-54.9,105-80.5c18.8-13.5,37.6-26.9,56.3-40.6c8.3-6.1,16.6-12.3,24.8-18.6c5.7-4.4,11-9.3,17.1-13
				c12.2-7.5,25.1-14.1,37.9-20.8c0.1-0.1,0.1-2.3,0-2.5c-2.2-6.8-5.2-13.4-8.9-19.5C223,249,222.3,250.3,222.6,250.9L222.6,250.9z"
				/>
		</g>
	</g>
	<g class="st0">
		<g>
			<polygon class="st13" points="229.5,271.1 233.7,268.8 237.4,266.6 241.3,266.5 245.3,265.5 245.3,267.6 249.1,272.6 
				250.8,274.4 253.2,278.2 254.7,283.1 259.3,285.8 259.2,285.9 255.9,281.9 253.7,277.1 252.3,273.7 249.5,271.1 247.6,265.7 
				245.5,264.3 244.1,261.7 237.8,264.5 233.2,266.9 229,270.8 			"/>
		</g>
	</g>
	<g class="st0">
		<path class="st15" d="M248.2,270.2c-14.3,10.1-31.3,15-46.4,22.8"/>
		<g>
			<path class="st13" d="M248.2,270.2C248.3,270.2,248.1,270.3,248.2,270.2c0.8-0.3,1.4-0.9,0,0.7c0,0,1.1,1.3,1.1,1.3
				c-0.2,0.1-9.8,4.6-18.1,8.3c-8.2,3.8-16.5,7.2-16.5,7.2c0,0-5.4,2.2-9.1,3.8c-6.3,2.8-4,1.4-0.1-0.7c-0.5,0.1,10.6-4.6,10.6-4.5
				c0,0,6.8-3.3,14.9-7C239.1,275.7,248,270.4,248.2,270.2z"/>
			<path class="st13" d="M231,279.2c9.5-4.2,12.1-5.3,17.2-9"/>
		</g>
	</g>
	<g class="st0">
		<path class="st15" d="M296.1,304.9c-3.3,18-12,34.4-17.4,51.5"/>
		<g>
			<path class="st13" d="M296.1,304.9C296.1,304.8,296,305,296.1,304.9c0.3-0.8,0.4-1.7,0.4,0.5c0,0,1.6,0,1.6,0.1
				c0,0.3-3.8,10.7-7.2,19.6c-3.3,8.9-6.8,17.6-6.8,17.6c0,0-2.3,5.7-3.8,9.7c-2.6,6.8-1.9,4-0.5-0.4c-0.3,0.4,4.4-11.3,4.4-11.3
				c0,0,2.6-7.6,5.8-16.3C293.3,315.6,296,305.1,296.1,304.9z"/>
			<path class="st13" d="M290,324.4c3.9-10.2,5-12.9,6.1-19.5"/>
		</g>
	</g>
	<g class="st0">
		<path class="st15" d="M275.4,314.8c-9.4,15.3-23.3,27-34.3,40.6"/>
		<g>
			<path class="st13" d="M275.4,314.8C275.4,314.7,275.3,314.9,275.4,314.8c0.6-0.6,1-1.4,0.2,0.6c0,0,1.5,0.7,1.5,0.8
				c0.1-1.4-7.3,8.4-13.6,15.2c-6.2,6.9-12.5,13.5-12.5,13.6c0,0-4.2,4.3-7,7.4c-4.8,5.3-3.1,2.9-0.4-0.6c-0.4,0.3,8-8.7,8.1-8.7
				c0,0,5.1-6,11.1-12.8C269,323.6,275.2,315,275.4,314.8z"/>
			<path class="st13" d="M262.8,330.4c7.2-7.9,9.8-10.6,13.1-16.2"/>
		</g>
	</g>
	<g class="st0">
		<linearGradient id="SVGID_16_" gradientUnits="userSpaceOnUse" x1="235.8513" y1="350.5562" x2="279.7296" y2="350.5562">
			<stop  offset="0" style="stop-color:#FFFFFF"/>
			<stop  offset="1" style="stop-color:#000000"/>
		</linearGradient>
		<path class="st16" d="M279.7,319.3c-11.7,22.5-29.9,41.7-43.9,62.5"/>
		<g>
			<linearGradient id="SVGID_17_" gradientUnits="userSpaceOnUse" x1="235.7396" y1="350.0408" x2="282.2703" y2="350.0408">
				<stop  offset="0" style="stop-color:#FFFFFF"/>
				<stop  offset="1" style="stop-color:#000000"/>
			</linearGradient>
			<path class="st17" d="M279.7,319.3C279.8,319.2,279.6,319.5,279.7,319.3c0.8-1,1.3-2.1,0.4,0.7c0,0.1,2.2,0.4,2.1,0.5
				c-0.2,0.3-9.3,13-17.5,23.7c-7.9,10.8-16.2,21.2-16.1,21.2c0,0-5.4,6.8-9,11.6c-6.2,8.2-4.1,4.7-0.6-0.6
				c-0.5,0.5,10.4-13.6,10.4-13.6c-0.1,0,6.5-9.2,14.3-19.7C271.7,332.6,279.6,319.6,279.7,319.3z"/>
			<linearGradient id="SVGID_18_" gradientUnits="userSpaceOnUse" x1="263.7849" y1="331.1913" x2="279.7296" y2="331.1913">
				<stop  offset="0" style="stop-color:#FFFFFF"/>
				<stop  offset="1" style="stop-color:#000000"/>
			</linearGradient>
			<path class="st18" d="M263.8,343.1c9.3-12.3,11.8-15.6,15.9-23.8"/>
		</g>
	</g>
	<g class="st0">
		<path class="st15" d="M252.2,275.2c-21.7,21.1-50.6,30.9-74.1,48.1"/>
		<g>
			<path class="st13" d="M250.1,276.3c0.1-0.1,0.5-1.8,0.7-1.9c1.2-0.9,3.2,1.4,1.5,2.9c0,0.1-1.3,0.9-1.4,1
				c-1.7,1.7-12.2,9.9-25.6,17.5c-13.3,7.8-26.8,15-26.7,15.1c0,0-8.7,4.8-14.6,8.6c-9.9,6.6-6.2,3.6-0.1-0.7
				c-0.8,0.2,14.9-8.8,15-8.6c-0.1-0.1,13.9-7.9,27-15.6C239.1,287,249.9,276.7,250.1,276.3z"/>
		</g>
	</g>
	<g class="st0">
		<path class="st15" d="M306.1,165.4c-48.6,2.1-94.8-18.5-141.7-23.3"/>
		<g>
			<path class="st13" d="M302.3,166.5c0.3,0,5.2-1.7,5.5-1.6c0,1.6,0.3,3.6-0.9,4.9c-0.1,0-5.2-1.9-5.5-1.9
				c-3.9,0.2-25.3-1.3-49.9-6.9c-24.6-5.2-48.7-11.5-48.8-11.3c0,0-15.8-3.8-27-5.8c-19.1-2.9-76.5-19.8,0.5-1.1
				c-0.8-0.4,14.2,2.9,24.3,4.8c1.8,0.7,5.1,1.8,5.8,1.6c2.2-0.3-4.3-7.7-14.4-25c1,0.1,11.9,20.1,15.9,22.7
				c10,6.3,28.3,9.4,45.5,13C277.6,165.5,301.6,166.9,302.3,166.5z"/>
		</g>
	</g>
	<g class="st0">
		<path class="st15" d="M257,287.8c4.1-3.1,9-6.1,12.7-10.1c1.2,2.2,0.4,4.4,1.6,6.1c0.8,2.2,3.3,4.8,4.1,6.6
			c1.6,3.5,0.8,8.8,4.1,11.4"/>
		<g>
			<linearGradient id="SVGID_19_" gradientUnits="userSpaceOnUse" x1="257.0728" y1="289.8114" x2="279.9674" y2="289.8114">
				<stop  offset="0" style="stop-color:#FFFFFF"/>
				<stop  offset="1" style="stop-color:#000000"/>
			</linearGradient>
			<path class="st19" d="M258.4,288c-0.1,0-0.1,0.1-0.2,0.1c-0.7,0.2-1.6-2.2-0.8-3.9c0,0,1.5,1,1.5,1c0.1-0.2,4.7-3,9.8-8l0.1-0.1
				l0.1-0.1l0,0c0.7,0.1-1.5-0.2,1.5,0.2l0,0l0,0l0.2,0.4c0.1,0.3,0.2,0.5,0.3,0.8c0.2,0.5,0.3,1.1,0.3,1.6c0.1,1,2,1.9,2.2,2.5
				c0.7,1.6-0.5,2.7,0.3,3.9c1.6,2.1,2.7,4.1,2.5,4.1c0.4,0,1.6,4.5,2.3,7.6c0.9,2.6,2,5.9,0.6,3.8c-0.3-0.1-0.8-1.5-1.6-3.3
				c-0.4,0.4-2.9-8.1-3.3-7.7c0.1,0-0.7-1.4-2.4-3.7c-0.9-1.4-1.5-2.3-2.4-4.5c-0.3-1-1.6-0.6-1.8-1.4c0-0.4,1.2-2.1,1.1-2.5
				l-0.2-0.5l-0.1-0.1l0,0c-1.3-0.2,1.8,0.2,1.5,0.2l0,0l0,0l-0.1,0.1l-0.3,0.2C264.6,284,258.4,287.8,258.4,288z"/>
		</g>
	</g>
	<g class="st0">
		<linearGradient id="SVGID_20_" gradientUnits="userSpaceOnUse" x1="346.9819" y1="291.5299" x2="579.0675" y2="459.8556">
			<stop  offset="0" style="stop-color:#FFFFFF"/>
			<stop  offset="1" style="stop-color:#000000"/>
		</linearGradient>
		<path class="st20" d="M590.2,446.9c-6.1-5.1-14.2-10.5-18.3-17.4c-4.6-7.7-10.3-13.8-16.6-20c-12.9-12.8-26.7-24.4-40.6-35.9
			c-14.1-11.7-27.9-23.9-42.5-34.9c-7.2-5.5-14.6-10.8-21.7-16.4c-7.2-5.6-14.1-11.7-21.1-17.5c-4.8-4-9.8-7.8-14.8-11.5
			c-3.7-2.6-7.6-4.8-11.1-7.6c-5.5-4.2-10.9-8.6-16.4-13c-3.9-3.1-7.8-6.3-11.8-9.5c0,0-3.4,6.6-3.6,7.1c-2.8,5.9-5.2,12-7,18.3
			c0-0.5,0-1.1,0-1.6c13.7,12.8,27.1,25.8,40.8,38.5c7.6,7,15.1,14,22.7,21c25.7,23.6,50.8,49.1,76,73.3
			c24.6,23.7,51.5,44.8,70.7,74.1c0.2,0.4-7.8,22.5,0,1.6c-19.2-29.3-49.2-48.1-73.8-71.8c-25.2-24.2-48.1-49.4-73.8-73
			c-7.6-7-15.4-15-23-22c-13.7-12.7-25.9-27.4-39.6-40.2c-0.1-0.1-0.1-1.4,0-1.6c2.3-8,5.6-15.6,9.3-23c0.1-0.3,1.1-2.5,1.4-2.4
			c0.9,0.7,1.7,1.4,2.6,2.1c7.7,6.2,15.4,12.4,23.2,18.5c4.3,3.4,9,6.2,13.4,9.4c7.5,5.3,14.6,11.2,21.6,17.1
			c14,11.8,28.6,22.4,43.1,33.6c10.1,7.8,19.7,16.4,29.5,24.6c10,8.3,20,16.5,29.7,25.1c9.5,8.4,19.6,17.1,27.7,27.2
			c7.2,8.9,28.9,28.6,37.6,21.1c21.3-18.5-17.8,8.1-17.6,8.3L590.2,446.9z"/>
	</g>
	<g class="st0">
		<linearGradient id="SVGID_21_" gradientUnits="userSpaceOnUse" x1="397.8646" y1="287.4077" x2="442.3392" y2="322.1677">
			<stop  offset="0" style="stop-color:#FFFFFF"/>
			<stop  offset="1" style="stop-color:#000000"/>
		</linearGradient>
		<path class="st21" d="M372.3,268.2c17.6,11.8,30.9,24,51.1,38.5"/>
		<g>
			<linearGradient id="SVGID_22_" gradientUnits="userSpaceOnUse" x1="397.9009" y1="287.3612" x2="442.3755" y2="322.1212">
				<stop  offset="0" style="stop-color:#FFFFFF"/>
				<stop  offset="1" style="stop-color:#000000"/>
			</linearGradient>
			<path class="st22" d="M372.3,268.2c2.6,1.5,4.3,2.5,7.3,4.6c3.2,2.1,18.6,14.2,18.6,14.2c0,0,15.3,12.1,18.5,14.3
				c2.9,2.1,4.5,3.4,6.8,5.4c-2.6-1.5-4.3-2.6-7.2-4.8c-3.2-2.2-18.5-14.3-18.5-14.3c0,0-15.4-12-18.6-14.2
				C376.3,271.3,374.7,270.1,372.3,268.2z"/>
		</g>
	</g>
	<g class="st0">
		
			<linearGradient id="SVGID_23_" gradientUnits="userSpaceOnUse" x1="569.4767" y1="293.8286" x2="610.4727" y2="293.8286" gradientTransform="matrix(-0.9997 2.310000e-02 2.310000e-02 0.9997 972.657 -8.7932)">
			<stop  offset="0" style="stop-color:#FFFFFF"/>
			<stop  offset="1" style="stop-color:#000000"/>
		</linearGradient>
		<path class="st23" d="M368.7,278.8c14.4,11.8,27.6,27.1,41.9,39.6"/>
		<g>
			
				<linearGradient id="SVGID_24_" gradientUnits="userSpaceOnUse" x1="569.4767" y1="293.8286" x2="610.4727" y2="293.8286" gradientTransform="matrix(-0.9997 2.310000e-02 2.310000e-02 0.9997 972.657 -8.7932)">
				<stop  offset="0" style="stop-color:#FFFFFF"/>
				<stop  offset="1" style="stop-color:#000000"/>
			</linearGradient>
			<path class="st24" d="M368.7,278.8c2.2,1.6,3.7,2.6,6.1,4.8c2.7,2.2,15.3,14.5,15.2,14.6c-1.2,1.6,6.1,6.6,15.1,14.7
				c2.4,2.2,3.7,3.5,5.5,5.5c-2.1-1.6-3.6-2.7-6-4.9c-2.6-2.3-15.1-14.7-15.1-14.7c0,0-12.5-12.3-15.2-14.6
				C371.9,282,370.6,280.7,368.7,278.8z"/>
		</g>
	</g>
	<g class="st0">
		
			<linearGradient id="SVGID_25_" gradientUnits="userSpaceOnUse" x1="-126.7782" y1="614.0146" x2="-100.6883" y2="614.0146" gradientTransform="matrix(0.9959 -9.040000e-02 -9.040000e-02 -0.9959 554.277 885.5234)">
			<stop  offset="0" style="stop-color:#FFFFFF"/>
			<stop  offset="1" style="stop-color:#000000"/>
		</linearGradient>
		<path class="st25" d="M399.7,296c-9.6-6.9-18.7-16-28.3-23.3"/>
		<g>
			
				<linearGradient id="SVGID_26_" gradientUnits="userSpaceOnUse" x1="-126.7782" y1="614.0146" x2="-100.6883" y2="614.0146" gradientTransform="matrix(0.9959 -9.040000e-02 -9.040000e-02 -0.9959 554.277 885.5234)">
				<stop  offset="0" style="stop-color:#FFFFFF"/>
				<stop  offset="1" style="stop-color:#000000"/>
			</linearGradient>
			<path class="st26" d="M399.7,296c-1.5-0.9-2.4-1.5-4.1-2.8c-1.8-1.3-10.3-8.6-10.3-8.6c0,0-8.5-7.3-10.2-8.7
				c-1.6-1.3-2.5-2.1-3.7-3.3c1.4,0.9,2.4,1.6,4,2.9c1.8,1.4,10.2,8.7,10.2,8.7c0,0,8.5,7.3,10.3,8.6
				C397.5,294.1,398.4,294.8,399.7,296z"/>
		</g>
	</g>
	<g class="st0">
		
			<linearGradient id="SVGID_27_" gradientUnits="userSpaceOnUse" x1="345.3254" y1="16.4209" x2="390.9499" y2="52.0796" gradientTransform="matrix(-7.620000e-02 -0.9971 0.9971 -7.620000e-02 364.1627 469.1766)">
			<stop  offset="0" style="stop-color:#FFFFFF"/>
			<stop  offset="1" style="stop-color:#000000"/>
		</linearGradient>
		<path class="st27" d="M338.3,152.4c9.6-19.7,20-34.9,31.9-57.7"/>
		<g>
			
				<linearGradient id="SVGID_28_" gradientUnits="userSpaceOnUse" x1="345.3254" y1="16.4209" x2="390.9499" y2="52.0796" gradientTransform="matrix(-7.620000e-02 -0.9971 0.9971 -7.620000e-02 364.1627 469.1766)">
				<stop  offset="0" style="stop-color:#FFFFFF"/>
				<stop  offset="1" style="stop-color:#000000"/>
			</linearGradient>
			<path class="st28" d="M338.3,152.4c1.2-2.9,2-4.8,3.7-8.1c1.7-3.6,11.7-21,11.8-21c0,0,10-17.3,11.9-20.9c1.8-3.2,2.9-5,4.5-7.6
				c-1.2,2.9-2.1,4.8-3.9,8c-1.8,3.6-11.9,20.9-11.9,20.9c0,0-10,17.3-11.8,21C340.9,147.9,339.9,149.7,338.3,152.4z"/>
		</g>
	</g>
	<g class="st0">
		
			<linearGradient id="SVGID_29_" gradientUnits="userSpaceOnUse" x1="584.0496" y1="46.2767" x2="628.2231" y2="46.2767" gradientTransform="matrix(9.790000e-02 2.3652 2.4275 -0.1004 221.4306 -1330.2593)">
			<stop  offset="0" style="stop-color:#FFFFFF"/>
			<stop  offset="1" style="stop-color:#000000"/>
		</linearGradient>
		<path class="st29" d="M349.2,152.9c26.2-37,60.1-71.5,87.9-108.3"/>
		<g>
			<linearGradient id="SVGID_30_" gradientUnits="userSpaceOnUse" x1="349.1621" y1="98.7282" x2="437.054" y2="98.7282">
				<stop  offset="0" style="stop-color:#FFFFFF"/>
				<stop  offset="1" style="stop-color:#999999"/>
			</linearGradient>
			<path class="st30" d="M349.2,152.9c3.5-5.6,5.8-9.4,10.6-15.7c5-6.9,32.3-39.5,32.4-39.4c3.8,2.9,14.8-15.9,32.7-39
				c4.9-6.1,7.8-9.4,12.3-14.2c-3.6,5.5-6.1,9.3-10.9,15.4c-5.2,6.7-32.7,39-32.7,39c-0.1-0.1-27.3,32.4-32.3,39.3
				C356.3,144.5,353.5,148,349.2,152.9z"/>
		</g>
	</g>
	<g class="st0">
		
			<linearGradient id="SVGID_31_" gradientUnits="userSpaceOnUse" x1="-157.0422" y1="882.2169" x2="-128.7224" y2="882.2169" gradientTransform="matrix(-0.1086 -0.9941 -0.9941 0.1086 1215.5055 -103.1176)">
			<stop  offset="0" style="stop-color:#FFFFFF"/>
			<stop  offset="1" style="stop-color:#000000"/>
		</linearGradient>
		<path class="st31" d="M364.6,119.3c-6.2,10.5-14.5,20.4-21.2,30.8"/>
		<g>
			
				<linearGradient id="SVGID_32_" gradientUnits="userSpaceOnUse" x1="-157.0422" y1="882.2169" x2="-128.7224" y2="882.2169" gradientTransform="matrix(-0.1086 -0.9941 -0.9941 0.1086 1215.5055 -103.1176)">
				<stop  offset="0" style="stop-color:#FFFFFF"/>
				<stop  offset="1" style="stop-color:#000000"/>
			</linearGradient>
			<path class="st32" d="M364.6,119.3c-0.8,1.6-1.4,2.7-2.5,4.4c-1.2,2-7.8,11.2-7.8,11.2c0,0-6.7,9.2-7.9,11.1
				c-1.2,1.7-1.9,2.7-3,4.1c0.8-1.6,1.4-2.6,2.6-4.4c1.2-1.9,7.9-11.1,7.9-11.1c0,0,6.6-9.2,7.8-11.2
				C362.9,121.7,363.6,120.7,364.6,119.3z"/>
		</g>
	</g>
	<g class="st0">
		<g>
			<path class="st13" d="M404.4,194.9c0,4.6-1,9.3-1.6,13.8c0,0.1,0,1.2,0,1.2c23,4.4,46.2,9.5,68.5,16.8c30.7,10,61,21.2,91.1,32.6
				c17.1,6.4,34.1,13,51.1,19.6c-0.1-0.1,0.1-1.2,0-1.2c-30-11.6-60-23.1-90.2-34c-29.7-10.8-59.4-21-90.2-28.4
				c-10.1-2.4-20.2-4.6-30.4-6.5c0,0.4,0,0.8,0,1.2c0.7-4.7,1.6-9.5,1.7-14.2C404.4,195.6,404.4,194.4,404.4,194.9L404.4,194.9z"/>
		</g>
	</g>
	<g class="st0">
		<linearGradient id="SVGID_33_" gradientUnits="userSpaceOnUse" x1="481.3286" y1="254.4001" x2="600.0918" y2="292.7506">
			<stop  offset="0" style="stop-color:#FFFFFF"/>
			<stop  offset="1" style="stop-color:#000000"/>
		</linearGradient>
		<path class="st33" d="M415.9,212.9c-1.9,4.5-2.9,9.4-4.3,14.1c0-0.3,0-0.5,0-0.8c34.8,16.9,70,32.5,105.8,46.8
			c17.2,6.9,33.9,15.1,50.7,23.1c7.7,3.6,15.2,7.4,22.8,11.3c7,3.6,14.1,7.2,21.5,9.7c0.1,0-0.1,0.8,0,0.8
			c-15-5.1-28.9-13.7-43.3-20.5c-17.2-8.1-34.2-16.5-51.7-23.6c-17.7-7.2-35.4-14.2-52.9-22c-17.8-7.9-35.3-16.3-52.8-24.8
			c0,0,0-0.7,0-0.8c1.3-4.7,2.4-9.6,4.3-14.1C415.8,212.3,416,212.7,415.9,212.9L415.9,212.9z"/>
	</g>
	<g class="st0">
		<path class="st15" d="M411.6,226.6c2.5-4.3,0.5-7.7,5.6-13.4"/>
		<path class="st13" d="M411.6,225.4c1-1.9-0.3-6.5-0.3-6.5s2.7-4.6,4.6-6.8c-0.4,0.4,4.8,0.8,4.5,1.2c-1.8,2.1-6.1,5.3-6.8,8.1
			c-0.5,2.3-0.8,4.4-1.9,6.4C412,227.2,411.2,226,411.6,225.4L411.6,225.4z"/>
	</g>
	<g class="st0">
		<g>
			<path class="st13" d="M421.5,232.3c-3.6,6.1-6.5,12.8-8.5,19.7c0,0.1-0.1,1.2,0,1.2c7.4,3.6,14.7,7.3,22,11
				c10.4,5.3,19.7,10.9,29.1,17.8c31.8,23.5,66.3,43.2,99.3,64.9c18.9,12.4,37.2,25.5,54.4,40.2c-0.2-0.2,0.2-1.1,0-1.2
				c-30.4-26-64.5-46.8-98.2-68c-16.9-10.6-33.6-21.3-49.8-32.9c-5.6-4-10.9-8.7-16.9-12.3c-4.4-2.7-9-5-13.5-7.4
				c-8.7-4.5-17.5-9-26.3-13.3c0,0.4,0,0.8,0,1.2c2-6.8,4.9-13.5,8.5-19.7C421.7,233.3,421.4,232.6,421.5,232.3L421.5,232.3z"/>
		</g>
	</g>
	<g class="st0">
		<g>
			<polygon class="st13" points="415.1,254.5 410.9,252.3 407.1,250.2 403.2,250.2 399.3,249.4 399.2,251.5 395.6,256.5 
				393.9,258.3 391.6,262.3 390.2,267.2 385.7,269.9 385.8,270.1 388.9,266 391,261.1 392.5,257.7 395.1,255.1 397,249.6 
				399.1,248.2 400.4,245.5 406.7,248.1 411.3,250.5 415.7,254.2 			"/>
		</g>
	</g>
	<g class="st0">
		<path class="st15" d="M396.4,254.1c14.5,9.7,31.6,14.2,46.9,21.7"/>
		<g>
			<path class="st13" d="M396.4,254.1C396.3,254.1,396.5,254.2,396.4,254.1c-0.8-0.3-1.5-0.9,0,0.7c0,0-1.1,1.3-1,1.3
				c0.2,0.1,9.9,4.4,18.2,7.8c8.3,3.6,16.6,6.7,16.6,6.8c0,0,5.4,2.1,9.2,3.6c6.4,2.7,4,1.3,0.1-0.7c0.5,0.1-10.7-4.3-10.7-4.3
				c0,0-6.9-3.2-15-6.7C405.6,259.3,396.6,254.3,396.4,254.1z"/>
			<path class="st13" d="M413.8,262.7c-9.6-4-12.2-5-17.4-8.6"/>
		</g>
	</g>
	<g class="st0">
		<path class="st15" d="M356.4,283.9c9.8,15.1,23.9,26.4,35.2,39.7"/>
		<g>
			<path class="st13" d="M356.4,283.9C356.4,283.8,356.5,284,356.4,283.9c-0.6-0.6-1-1.4-0.2,0.6c0,0-1.5,0.7-1.5,0.8
				c-0.1-1.4,7.5,8.2,13.9,14.9c6.3,6.8,12.8,13.2,12.8,13.2c0,0,4.2,4.2,7.1,7.2c4.9,5.2,3.2,2.8,0.4-0.6c0.4,0.3-8.2-8.5-8.3-8.4
				c0,0-5.2-5.8-11.4-12.5C363,292.6,356.6,284.1,356.4,283.9z"/>
			<path class="st13" d="M365.6,294.3c-7.4-7.7-5.7-4.9-9.2-10.4"/>
		</g>
	</g>
	<g class="st0">
		<linearGradient id="SVGID_34_" gradientUnits="userSpaceOnUse" x1="353.5862" y1="295.6268" x2="375.9765" y2="322.815">
			<stop  offset="0" style="stop-color:#FFFFFF"/>
			<stop  offset="1" style="stop-color:#000000"/>
		</linearGradient>
		<path class="st34" d="M356.4,295.8c11.8,21.6,30,39.8,45.2,61.4"/>
		<g>
			<linearGradient id="SVGID_35_" gradientUnits="userSpaceOnUse" x1="351.9371" y1="287.5344" x2="374.3263" y2="314.7212">
				<stop  offset="0" style="stop-color:#FFFFFF"/>
				<stop  offset="1" style="stop-color:#000000"/>
			</linearGradient>
			<path class="st35" d="M354.7,287.7C354.7,287.5,354.9,287.8,354.7,287.7c-0.8-1-1.3-2.1-0.4,0.7c0,0.1-2.2,0.5-2.1,0.6
				c0.2,0.3,9.6,12.7,18,23.2c8.2,10.6,16.6,20.8,16.6,20.8c0,0,5.5,6.6,9.3,11.4c6.3,8.1,4.2,4.6,0.6-0.6
				c0.5,0.5-10.7-13.3-10.7-13.3c0.1,0-6.7-9-14.7-19.4C363,300.7,354.9,288,354.7,287.7z"/>
			<linearGradient id="SVGID_36_" gradientUnits="userSpaceOnUse" x1="348.6305" y1="291.0536" x2="371.0371" y2="318.2615">
				<stop  offset="0" style="stop-color:#FFFFFF"/>
				<stop  offset="1" style="stop-color:#000000"/>
			</linearGradient>
			<path class="st36" d="M367.1,315.2c-9.5-12.1-12.2-15.3-16.5-23.4"/>
		</g>
	</g>
	<g class="st0">
		<path class="st15" d="M392.5,259.2c22.2,20.6,51.3,29.6,75.1,46.3"/>
		<g>
			<path class="st13" d="M394.7,260.2c-0.1-0.1-0.6-1.8-0.8-1.9c-1.2-0.8-3.2,1.5-1.5,3c0,0,1.3,0.8,1.4,1c1.8,1.7,12.4,9.6,26,16.9
				c13.5,7.5,27.1,14.3,27,14.4c0,0,8.8,4.6,14.8,8.2c10,6.3,6.2,3.5,0.1-0.7c0.8,0.2-15.1-8.4-15.2-8.2c0.1-0.1-14.1-7.5-27.3-14.9
				C405.9,270.7,394.8,260.7,394.7,260.2z"/>
		</g>
	</g>
	<g class="st0">
		<g>
			<path class="st13" d="M386.6,272.2c0.1,0,0.1,0.1,0.2,0.1c0.7,0.1,1.6-2.3,0.7-3.9c0,0-1.5,1.1-1.5,1c-0.1-0.2-4.8-2.9-10-7.7
				l-0.1-0.1l-0.1-0.1l0,0c-0.7,0.1,1.5-0.2-1.5,0.2l0,0l0,0l-0.2,0.4c-0.1,0.3-0.2,0.5-0.3,0.8c-0.2,0.5-0.2,1.1-0.3,1.6
				c-0.1,1-2,2-2.2,2.6c-0.7,1.6,0.6,2.7-0.3,3.9c-1.6,2.2-2.6,4.2-2.5,4.2c-0.4,0-1.8,4.5-2.4,7.6c-0.8,2.6-2.3,6.3-0.9,6
				c0.3-0.1,1.4-3.7,2.1-5.5c0.4,0.3,2.7-8.2,3.1-7.7c-0.1,0,0.7-1.4,2.3-3.7c0.9-1.4,1.4-2.3,2.3-4.5c0.2-1,1.6-0.7,1.7-1.5
				c0-0.4-1.3-2.1-1.2-2.5l0.2-0.5l0.1-0.1l0,0c1.3-0.2-1.8,0.3-1.5,0.2l0,0l0,0l0.1,0.1l0.3,0.2
				C380.4,268.3,386.6,271.9,386.6,272.2z"/>
		</g>
	</g>
	<g class="st0">
		<path class="st15" d="M270.4,312.8c5.5,0,15.3,10.5,15.3,10.5s-7.4,15.1-11,20.4c-17.2,27.6-39.2,79.5-54.5,112.4"/>
		<g>
			<linearGradient id="SVGID_37_" gradientUnits="userSpaceOnUse" x1="289.0368" y1="312.0612" x2="227.2563" y2="414.8116">
				<stop  offset="0" style="stop-color:#FFFFFF"/>
				<stop  offset="1" style="stop-color:#000000"/>
			</linearGradient>
			<path class="st37" d="M274,314.9c-0.2-0.1-0.3-0.2-0.6-0.4c-1.9-1.1-4.8,0.3-1.3-2.9c1.9-2.4,2.5,1.3,2.7,1.4
				c0.2,0.1,3,1.3,5.4,1.6c0,2.2,1.4,4.8,3.1,6.4c0.8,0.8,2.2,0.6,3.1,1.5l0,0l0,0c0-0.3,0.3,2.3,0.2,1.2l-0.1,0.1l-0.1,0.2
				l-0.2,0.4l-0.4,0.9l-0.9,1.8c-4.7,10.2-9.7,25.2-16.3,38.1c-13.5,25.8-28.5,49.6-28.6,49.5c0,0-8,17.2-13.8,29.1
				c-9.8,20.3-6.4,11.9-0.8-0.9c-0.6,1.3,13.5-30.6,13.5-30.6c0.1,0,13.8-21.6,27.2-47.2c6.7-12.9,12.6-29.3,17.1-39.3l0.9-1.8
				l0.4-0.9l0.2-0.4l0.1-0.1l0-0.1c0.3,2.4,0.1,0.6,0.2,1.2l0,0l-0.2-0.2c-0.8-0.9-1.7-1.7-2.4-2.4c-1.6-1.5-2.8-4-4-5
				C275.9,317,274.1,315,274,314.9z"/>
		</g>
	</g>
	<g class="st0">
		<path class="st15" d="M285.1,324c0.9-1.9-0.1-0.5,6.2-19.1c0,0,12.3,1,15.9,1c4.3,13.1-2.5,29.9-4.3,45.7
			c-4.6,39.1-10.4,74.9-16.5,113.7"/>
		<g>
			<path class="st13" d="M287.5,319.4c-0.1,0.3-0.4,3-0.5,3.4c-1.2,3.1-3.1,4.6-1.5-2.9c0-0.1,0.2-0.8,0.3-1.1
				c0.1-0.2,0.8-2.5,2-6.2c0.6-1.9,1.4-4.1,2.2-6.6l0.3-1l0.1-0.2l0-0.1l0,0c-0.9,0.6,0.5-1.2,0.3-1.1l0.9-1.9l0.7-0.2l1.4,0.9
				c1.4,0.1,3.7-0.2,5.2-0.1c1.5,1.5,2.5,2.5,4.2,2.5l2.5,0.1l1.3,0l0.3,0c-0.2-0.2,2.3,0.5,1.5-0.1l0.1,1l-0.8,0.9l0.2-0.8l0.2,0.7
				c1.1,3.7,1.3,7.9,1.1,12c-0.5,8.3-2.8,16.8-4.3,25.2c-4.5,34.2-5.6,53.3-8.1,69.3c-1.1,10.3-4.2,35-6.9,50.4
				c-4.6,26.2-12.3,13.1-1.7-14.6c-0.3,1.7,5.8-39.1,5.7-39.1c0.1,0,4.8-33.4,9.4-67.4c1.6-8.4,3.8-16.7,4.2-24.6
				c0.2-3.9-0.1-7.7-1.1-11.1l-0.1-0.3l0-0.2l0,0c-0.8-0.6,1.1,0.8,0.9,0.7l-0.1,0l-0.7,0l-1.3,0l-3.5-0.6c-1.6-0.1-2.2,0.3-3.7,0.2
				c-1.5-0.1-3-1.2-4.3-1.3l-2,0.8l-0.2,0l-0.1,0c-0.9,0.6,1.2-0.8,0.9-0.7l0,0l0,0.1l-0.2,0.5l-0.3,1c-0.8,2.5-1.6,4.7-2.2,6.5
				C288.3,317,287.6,319.2,287.5,319.4z"/>
		</g>
	</g>
	<g class="st0">
		<g>
			<linearGradient id="SVGID_38_" gradientUnits="userSpaceOnUse" x1="316.7154" y1="293.7675" x2="315.0719" y2="373.6373">
				<stop  offset="0" style="stop-color:#FFFFFF"/>
				<stop  offset="1" style="stop-color:#000000"/>
			</linearGradient>
			<path class="st38" d="M316.6,300.2l0.4-0.1c1.4,10.8-1.1,21.5-1.6,32.1c-0.3,4.6-0.2,9.3,0.7,13.8c-1.1-4.7-1.2-9.5-1-14.3
				C315.6,321.2,317.9,310.7,316.6,300.2z"/>
		</g>
	</g>
	<g class="st0">
		<g>
			
				<linearGradient id="SVGID_39_" gradientUnits="userSpaceOnUse" x1="376.1305" y1="288.4738" x2="374.5052" y2="367.4612" gradientTransform="matrix(0.9068 -0.4216 0.4216 0.9068 -118.2738 192.4015)">
				<stop  offset="0" style="stop-color:#FFFFFF"/>
				<stop  offset="1" style="stop-color:#000000"/>
			</linearGradient>
			<path class="st39" d="M347.1,301.2l0.3-0.2c5.5,9.2,8.7,19.4,12.4,29.4c1.5,4.3,2.2,9,4.8,12.7c-2.8-3.7-3.7-8.8-5.4-13.2
				C355.7,320,352.4,310.1,347.1,301.2z"/>
		</g>
	</g>
	<g class="st0">
		<path class="st15" d="M309.2,310.6c-0.9-4.1,0.6-10.8,2-13.1c3.8,1.1,8.2,3.1,13.5,4.8c0.9-1,5.7-3.8,5.7-4.8
			c5.5,13.8,7,32,9.8,47.8c7.4,38.5,17.2,73.8,26.4,112.2"/>
		<g>
			<linearGradient id="SVGID_40_" gradientUnits="userSpaceOnUse" x1="307.1063" y1="376.3105" x2="366.6916" y2="376.3105">
				<stop  offset="0" style="stop-color:#FFFFFF"/>
				<stop  offset="1" style="stop-color:#000000"/>
			</linearGradient>
			<path class="st40" d="M309.7,305.4c0,0.4,0,0.5-0.1,0.9c-0.6,5.5-0.7,10.4-2.1,0.2c0-0.1,1-0.9,1-1.2c-2-1.1-2.2,1.7,1.1-7.3
				c0.2-0.5,0.9-0.3,1.1-0.8c1.2-0.5,1.3-1,1.5-2.3c1.1,0.3,3.2,3.6,4.3,2.5c2,1.6,3.5,0.5,6.4,1.5l1.9,2.9c-1,0.2,0-0.2-0.1-0.3
				l1-0.8l1.2-2.6c1.2,0.7,1.4,1,2.7-0.4c0.5-0.2-0.9,0.1,1.3-0.3l0.2,0.7l0.5,1.3c1.3,3.6,2.4,7.4,3.3,11.5
				c1.8,8.1,3.1,16.8,4.4,25.4c5.7,34.5,14.9,68.1,14.7,68.1c0,0,5.4,22,9,37.4c6.1,26.2,3.3,15.8-0.7-0.3
				c0.4,1.7-9.9-38.7-9.9-38.7c0.2-0.1-8.8-33.1-14.4-67.3c-1.3-8.5-2.5-17.1-4.4-25c-0.9-3.9-2-7.7-3.3-11.1l-0.5-1.3l-0.1-0.3
				c0.5-0.1-1.1,0.2,1.1-0.3l0,0.1l0,0.1l-0.1,0.3c-0.2,0.5-0.4,0.5-0.5,0.7c-0.7,0.7-1.4,1.2-2.1,1.7c-0.7,0.5-1.4,1-2,1.5
				c-0.3,0.2-0.7,0.5-0.9,0.7c-1.4,0.7-2.9-2-3.4-1.9c-2.9-1-3.7,0.5-6.1,0.5c-1.1-1.5-1.4-1-2.5-1.3c-0.2-0.2-2.6-1.6-1.6-1.9
				c-0.2,0.4-0.4,0.9-0.6,1.3C309.8,302.8,309.8,305.2,309.7,305.4z"/>
		</g>
	</g>
	<g class="st0">
		<linearGradient id="SVGID_41_" gradientUnits="userSpaceOnUse" x1="313.3918" y1="293.6958" x2="311.7485" y2="373.5577">
			<stop  offset="0" style="stop-color:#FFFFFF"/>
			<stop  offset="1" style="stop-color:#000000"/>
		</linearGradient>
		<path class="st41" d="M314.4,299.9c-1.3,10.2-2,20.9-2.9,31.3"/>
		<g>
			<linearGradient id="SVGID_42_" gradientUnits="userSpaceOnUse" x1="313.4614" y1="293.6973" x2="311.8181" y2="373.5589">
				<stop  offset="0" style="stop-color:#FFFFFF"/>
				<stop  offset="1" style="stop-color:#000000"/>
			</linearGradient>
			<path class="st42" d="M314.2,299.9l0.3,0c-0.9,7.3-1.5,14.5-2.1,21.8l-1,9.4l0.7-9.8C312.7,314.3,313.4,307.1,314.2,299.9z"/>
		</g>
	</g>
	<g class="st0">
		
			<linearGradient id="SVGID_43_" gradientUnits="userSpaceOnUse" x1="359.3726" y1="290.9849" x2="357.7456" y2="370.0564" gradientTransform="matrix(0.8978 -0.4403 0.4403 0.8978 -117.8577 196.3998)">
			<stop  offset="0" style="stop-color:#FFFFFF"/>
			<stop  offset="1" style="stop-color:#000000"/>
		</linearGradient>
		<path class="st43" d="M336.9,304.3c3,9.8,6.8,19.7,10.2,29.5"/>
		<g>
			
				<linearGradient id="SVGID_44_" gradientUnits="userSpaceOnUse" x1="359.4427" y1="290.9914" x2="357.8159" y2="370.0531" gradientTransform="matrix(0.8978 -0.4403 0.4403 0.8978 -117.8577 196.3998)">
				<stop  offset="0" style="stop-color:#FFFFFF"/>
				<stop  offset="1" style="stop-color:#000000"/>
			</linearGradient>
			<path class="st44" d="M336.8,304.4l0.3-0.1c2.2,6.9,4.6,13.8,7.1,20.6l3,8.9l-3.4-9.1C341.3,318,339,311.2,336.8,304.4z"/>
		</g>
	</g>
	<g class="st0">
		<g>
			<g>
				<g>
					<path class="st13" d="M320.8,300.4l0.6-0.1c0,0,0.1,0.9,0.3,2.5c0.2,1.6,0.4,3.8,0.5,6.5c0.4,5.4,0.7,12.6,1,19.8
						c0.3,7.2,0.6,14.4,0.8,19.8c0.3,5.4,0.5,9,0.5,9s0.1,1.6,0.2,3.9c0.1,1.2,0.1,2.5,0.2,4c0.1,1.5,0.2,3,0.3,4.6
						c0.2,3.1,0.5,6.2,0.8,8.5c0.1,1.2,0.3,2.1,0.4,2.8c0.1,0.7,0.2,1.1,0.2,1.1s-0.1-0.4-0.2-1.1c-0.1-0.7-0.4-1.7-0.5-2.9
						c-0.4-2.4-0.7-5.6-1-8.8c-0.6-6.4-1-12.8-1-12.8s-0.2-3.5-0.4-8.9c-0.2-5.3-0.5-12.4-0.8-19.5c-0.3-7.1-0.6-14.2-1-19.5
						c-0.2-2.7-0.4-4.9-0.5-6.4C320.9,301.3,320.8,300.4,320.8,300.4z"/>
				</g>
			</g>
		</g>
	</g>
	<g class="st0">
		<g>
			<g>
				<g>
					<path class="st13" d="M320.8,300.4l0.6-0.1c0,0,0.1,0.9,0.3,2.5c0.2,1.6,0.4,3.8,0.6,6.5c0.4,5.4,0.7,12.6,1,19.8
						c0.3,7.2,0.6,14.4,0.8,19.8c0.3,5.4,0.4,9,0.4,9s0.1,1.6,0.2,3.9c0.1,2.3,0.3,5.4,0.5,8.5c0.2,3.1,0.5,6.2,0.8,8.5
						c0.1,1.2,0.3,2.1,0.4,2.8c0.1,0.7,0.2,1.1,0.2,1.1s-0.1-0.4-0.2-1.1c-0.1-0.7-0.4-1.7-0.5-2.9c-0.4-2.4-0.7-5.6-1-8.8
						c-0.6-6.4-1-12.8-1-12.8s-0.2-3.5-0.4-8.9c-0.2-5.3-0.5-12.4-0.8-19.5c-0.3-7.1-0.6-14.2-1-19.5c-0.2-2.7-0.4-4.9-0.5-6.4
						C320.9,301.3,320.8,300.4,320.8,300.4z"/>
				</g>
			</g>
		</g>
	</g>
	<g class="st0">
		<g>
			<g>
				<g>
					<path class="st13" d="M382.6,183.2l-0.1-0.6c0,0,3.4-0.4,8.6-0.9c5.2-0.5,12.1-1.2,19-1.9c6.9-0.7,13.8-1.4,19-2
						c5.2-0.6,8.6-0.9,8.6-0.9s6-0.6,11.9-1.3c3-0.4,6-0.7,8.2-1.1c1.1-0.1,2-0.3,2.7-0.5c0.6-0.1,1-0.2,1-0.2s-0.4,0.1-1,0.2
						c-0.7,0.1-1.6,0.4-2.8,0.5c-2.3,0.4-5.4,0.9-8.4,1.3c-6.1,0.9-12.3,1.6-12.3,1.6s-3.4,0.4-8.5,0.9c-5.1,0.5-11.9,1.2-18.7,1.9
						c-6.8,0.7-13.6,1.4-18.7,1.9C386,182.8,382.6,183.2,382.6,183.2z"/>
				</g>
			</g>
		</g>
	</g>
	<g class="st0">
		<g>
			<g>
				<g>
					<path class="st13" d="M392,164.5l-0.2-0.5c0,0,0.5-0.2,1.3-0.6c0.8-0.4,2.1-0.9,3.6-1.6c3-1.2,7.1-2.6,11.1-4
						c8.2-2.6,16.3-5.2,16.3-5.2s3.6-1.1,7.1-2.3c0.9-0.3,1.8-0.6,2.6-0.9c0.8-0.3,1.6-0.6,2.2-0.9c0.6-0.3,1.1-0.6,1.5-0.8
						c0.4-0.2,0.6-0.3,0.6-0.3s-0.2,0.1-0.6,0.3c-0.4,0.2-0.9,0.5-1.5,0.8c-0.3,0.2-0.7,0.3-1,0.5c-0.4,0.2-0.8,0.3-1.2,0.5
						c-0.8,0.4-1.7,0.7-2.6,1c-3.6,1.4-7.2,2.6-7.2,2.6s-8.1,2.6-16.1,5.2c-4,1.3-8,2.7-10.9,3.9c-1.5,0.6-2.7,1.1-3.5,1.5
						C392.5,164.2,392,164.5,392,164.5z"/>
				</g>
			</g>
		</g>
	</g>
	<g class="st0">
		<g>
			<linearGradient id="SVGID_45_" gradientUnits="userSpaceOnUse" x1="333.5042" y1="382.4701" x2="415.5711" y2="382.4701">
				<stop  offset="0" style="stop-color:#FFFFFF"/>
				<stop  offset="1" style="stop-color:#000000"/>
			</linearGradient>
			<path class="st45" d="M333.8,306.5l-0.3-1.3c2.5-1.3,5.7-2.6,6.4-3.8c1.8,0.3,1.3-1.9,1.1-3.2l0-0.1l0,0c0.9,1.2,1.1,1.1,0.9,1.2
				l0.3-1.5l0.1,0.2l0.2,0.5l0.4,1l0.9,2c2.3,5.3,4.6,10.6,6.8,16c4.5,10.7,8.8,21.5,12.8,32.4c7.9,21.9,14.7,44.2,23.9,65.4
				c7.6,18.4,13.7,38.4,28.3,52c-15.4-13.7-21.8-34.6-30.1-53.3c-9.1-21-15.8-43.1-23.6-64.6c-4-10.7-8.2-21.3-12.6-31.9
				c-2.2-5.3-4.4-10.5-6.7-15.8l-0.9-2l-0.4-1l-0.2-0.5l-0.1-0.1l0-0.1c0.5-0.2-1.1,0.3,1.1-0.4l0,0l0,0.3c0.2,1.4,0.4,3.9-0.6,5.3
				C339.1,303.8,336.1,305.2,333.8,306.5z"/>
		</g>
	</g>
	<g class="st0">
		<g>
			<path class="st46" d="M347.7,383.9c0.1,0-0.1-1.7,0.1-1.8c0.5,1.7,0.6,2,1.1,3.6c-1-0.7-1.5-0.4-1.6-0.3c-0.1,0-2.3,1.3-5.6,3.2
				c-1.6,0.9-3.8,1.8-5.9,2.4c-2,0.4-4.9,2.3-7.2,0c-3.7-3.3-8.2-4.8-11.8-4.9c-3.5-0.2-6.2-0.8-6.1-1.1c0,0-1.5-0.9-2.9-2.6
				c-1.5-1.7-2.9-2.6-4.5-4.1c-2.7-2.6-4.2-3.8-3.7-4c0.4,0-0.7-2.3,1.1-0.6c0-0.5,10.4,11.6,11,10.5c-0.2,0,2.1,0.5,5.7,0.8
				c3.6,0,8.8,2.8,12.4,6.1c1.6,1.6,4.7-0.5,6.7-1c2.2-0.6,3.3-1.1,4.9-2C344.5,386.3,347.6,383.9,347.7,383.9z"/>
		</g>
	</g>
	<g class="st0">
		<g>
			<linearGradient id="SVGID_46_" gradientUnits="userSpaceOnUse" x1="343.116" y1="381.2953" x2="435.5119" y2="381.2953">
				<stop  offset="0" style="stop-color:#FFFFFF"/>
				<stop  offset="1" style="stop-color:#000000"/>
			</linearGradient>
			<path class="st47" d="M347.3,300.6c-0.3,0.2-1.1,1.3-1.5,1.6c-2.6,1.8-4.4-0.1-0.4-2.5c0.1-0.1,1.2,0.6,1.5,0.4
				c0.1-0.1,0.5-0.7,0.8-1.6l1.2-0.2l0.4-0.3l0.1-0.1l0,0l0,0c-0.2,0,1.7,0.2,0.9,0.1l0,0.1l0.1,0.2c0.4,0.7,1.8,3.8,2.3,4.6
				c1.9,3.4,4,7.2,6.9,12.9c5.8,11.9,16.5,37,20.6,40.3c-0.1,3.9,15,30.8,20.2,42.5c5.1,11.7,9.5,19.1,9.5,19.1
				c-0.1,0.1,9.6,19.9,17.4,33.2c13.5,22.4,7.7,13.7-0.8-0.1c0.4,0.7-4.6-7.6-9.3-16.3c-4.8-8.7-9.2-17.9-9.2-17.9
				c-0.1,0.1-3.5-7.7-8.6-19.1c-5.2-11.4-13.4-26-21-41c-7.5-15.1-14.4-30.5-20.6-41.7c-2.9-5.7-5.4-10.4-7.3-13.7
				c-0.5-0.8-0.9-1.6-1.3-2.2l-0.1-0.2l0,0c1.8,0.2,0.5,0.1,0.9,0.1l0,0l0,0l-0.1,0.1l-0.4,0.4l-0.6,0.6
				C348.2,300.7,347.4,300.5,347.3,300.6z"/>
		</g>
	</g>
	<g class="st0">
		<path class="st15" d="M350.1,298.8c-0.2-1.6-2-3.8-2.8-5.6c3.5-2.3,6.4-5.4,9.3-11c2.5,1.5,6,4.1,10.3,7.7"/>
		<g>
			<path class="st13" d="M350.4,297.7c0,0.1,0,0.1,0,0.2c0.1,0.8-0.2,1.4-1,0.4c0,0-0.1-0.1-0.1-0.1c0-0.1-0.6-1.3-1.8-3.3
				c-0.1-0.3-0.3-0.5-0.4-0.8l-0.2-0.4l-0.1-0.1c0.5-1.6,0.2-0.5,0.3-0.8l0.2-0.1c0.5-0.4,1.1-1.5,1.2-2.3c1.4-0.1,2.7-0.1,3.7-1.2
				c0.9-1.1,1.5-2.8,2.2-3.9c1.1-1.1,0.5-2.3,2.7-3.2c1.9,1.2,3,2,3,2c0,0,3,2.3,4.9,4.2c3.3,3.1,1.8,2.1-0.4,0.5
				c0.2,0.1-5.3-3.9-5.4-3.8c0,0-0.3-0.2-0.8-0.6c-0.1-0.4-2.1-0.7-1.3-1.5c-1,2-2.6,4.6-4.5,6.8c-1,1.1-2,2.2-3.1,3
				c-0.5,0.5-1.1,0.8-1.6,1.2c0-1.2,0.4,0.6,0.7,0.7C349.6,296.1,350.4,297.6,350.4,297.7z"/>
		</g>
	</g>
	<g class="st0">
		<g>
			<linearGradient id="SVGID_47_" gradientUnits="userSpaceOnUse" x1="328.1674" y1="60.6161" x2="540.9544" y2="60.6161">
				<stop  offset="0" style="stop-color:#FFFFFF"/>
				<stop  offset="1" style="stop-color:#000000"/>
			</linearGradient>
			<path class="st48" d="M384.3,10.9c0.2-0.8,0.2-1.1,0.5-2.2c1.6-7.3,4.1-18.1,1.8-0.1c-0.1,0.3-0.3,1.9-0.5,2.7
				c-0.2,1.1-4.2,21.8-15,50.4c-5.3,14.3-12.2,30.7-20.1,47.8c-3.9,8.6-8.1,17.3-12.4,26.2c-2.1,4.4-4.3,8.9-6.5,13.4l0.1,2
				c-0.3-0.6-0.4,1.2-1.6-1.6l0.1,0l0.2,0.1l0.4,0.1l0.8,0.2l0.6,2.2c2.3,0.5,7.5-2.3,9.8-2c4.6,2.3,7.5,1.5,11.9,2.5
				c3.9-2.6,9.1-6.8,13-9.5c7.8-5.4,15.2-11,22.4-16.5c14.3-11,27.2-22,38-31.7c21.5-19.5,34.6-33.8,34.7-33.8
				c0.2,0.3,34.9-36.7,56.2-65.5c18.3-24.2,23.3-32,21.7-29.1c-1.7,2.7-10.3,15.7-21.6,30.8c1.2-1.6-12.2,16.6-27.1,34.1
				c-14.7,17.6-31,34.4-31,34.4c0,0-13.2,14-34.5,33.2c-10.7,9.5-23.5,20.3-37.7,31.1c-7.1,5.4-14.5,10.9-22.2,16.2
				c-4,2.5-8.3,5.2-12.4,9.1c-5.1-0.3-9.3-1-13.9-1.7c-2.3-0.4-2.9,1.2-5.2,0.7l-2.6-1.3l-1.8,1.2l-2.5-1.5v-1.5
				c0.1,0.3,0.1-3.2,0.6-2l0.8-1.2l0.9-2.1c2.2-4.4,5.2-8.4,7.3-12.8c4.2-8.7,8.3-17.4,12.2-25.8c7.7-16.9,14.4-32.9,19.6-47
				C380.2,32.2,384.1,11.9,384.3,10.9z"/>
		</g>
	</g>
	<g class="st0">
		<path class="st15" d="M339,5.1c7.4,31.6,3.1,57.2,3.7,86.8c0,7.9,2.3,27,2.3,27s-11.5,25.6-20.1,34.8c-0.6-6.6-4.6-24.4-6.1-29.6
			c-3.1-10.5-4.7-17-8-27.6c-7.4-25-14.1-50.6-22.7-75.6c-6.7-19.7-11.6-38.8-19-60.5"/>
		<g>
			<linearGradient id="SVGID_48_" gradientUnits="userSpaceOnUse" x1="353.3001" y1="180.2786" x2="288.5525" y2="-74.787">
				<stop  offset="0" style="stop-color:#FFFFFF"/>
				<stop  offset="1" style="stop-color:#000000"/>
			</linearGradient>
			<path class="st49" d="M339.9,14.4c-0.1-0.6-0.1-0.9-0.2-1.7c-0.8-5.7-2-14.2,1.7-0.7c0.1,0.2,0.3,1.4,0.4,2
				c0.2,0.8,3.2,16.9,2.5,40.7c-0.2,11.9-1,25.6-0.5,40.2c0.4,7.3,1.2,14.8,2,22.4c0,0.7,0.2,0.4,0,2l-0.6,1.3l-1.2,2.6l-2.5,5.2
				c-1.7,3.4-3.5,6.9-5.4,10.2c-1.9,3.4-3.8,6.7-6,9.9c-1.1,1.6-2.2,3.1-3.4,4.6l-0.9,1.1l-0.1,0.1c1.4,0.6-2-0.7-1.7-0.6l0-0.1
				l0-0.3l-0.1-0.7l-0.4-2.8c-1.3-7.5-2.9-14.8-4.6-21.8c-3.8-14-7.6-26.9-10.9-38c-6.4-22.3-10.6-37-10.7-37c0,0-4.4-12.6-8.5-25.5
				c-4.3-12.8-13.3-35.8-17.2-49.3c-14-45.6,0.9-21,9.8,7.2c-1.3-2.8,19.1,70.1,18.6,70.3c0,0,4.2,14.6,10.5,36.5
				c3.3,10.9,7,23.7,10.7,37.6c1.6,7,3.2,14.2,4.4,21.8l0.2,1.4l0,0.4l0,0.2c-0.7-0.3,1.6,0.7-1.6-0.5l0.1-0.1l0.4-0.5
				c0.6-0.7,1.2-1.4,1.7-2.1c1.1-1.4,2.1-3,3.2-4.5c2-3.1,3.9-6.4,5.7-9.7c1.8-3.3,3.5-6.7,5.2-10l2.4-5.1l1.2-2.5
				c-0.2,0.2-0.2-1.6-0.4-2.2c-0.8-7.5-1.6-15-1.9-22.3c-0.4-14.6,0.4-28.1,0.6-39.8C343,30.9,342.1,20.3,339.9,14.4z"/>
		</g>
	</g>
	<g class="st0">
		<g>
			<linearGradient id="SVGID_49_" gradientUnits="userSpaceOnUse" x1="295.6972" y1="145.9027" x2="308.5509" y2="145.9027">
				<stop  offset="0" style="stop-color:#FFFFFF"/>
				<stop  offset="1" style="stop-color:#000000"/>
			</linearGradient>
			<path class="st50" d="M296.7,156.9c0,0-0.1,0-0.1,0.1c-0.5,0.2-1.2,0.2-0.6-0.9c0,0,0.1-0.1,0.1-0.1c0.2,0.2,3.7-3.5,7.2-7.3
				c0.9-0.9,1.9-1.8,2.8-2.6l1.4-1.1l0.3-0.2c-0.2,1.7-0.2,0.3-0.3,0.6l-0.5-0.6c-1.2-1.5-1.9-2.6-1.9-2.6c0,0-2-2.7-3-4.9
				c-1.8-3.6-0.6-2.8,0.8-0.7c-0.2-0.1,3.3,5.1,3.3,5.1c0,0,0.8,1,1.9,2.5l0.4,0.6l0.1,0.1l0,0c-0.3,1.8-0.1,0.5-0.1,0.9l0,0l0,0
				l0,0l-0.1,0.1l-0.3,0.2l-1.3,1c-0.9,0.8-1.8,1.6-2.6,2.5C300.6,153.2,297,157,296.7,156.9z"/>
		</g>
	</g>
	<g class="st0">
		<g>
			<g>
				<g>
					<path class="st13" d="M404.4,114.9c0.5-0.4,0.7-0.6,1.3-1.1c4.6-3.5,11.3-8.3,1.4,1.1c-0.2,0.2-1.1,1-1.5,1.4
						c-4.3,3.6-8.6,7.3-12.9,10.9c-2.2,1.8-4.4,3.6-6.6,5.3c-1.1,0.9-2.3,1.7-3.4,2.6c-0.6,0.4-1.2,0.8-1.7,1.2
						c-0.5,0.4-1.1,0.9-1.6,1.3c-4.1,3.5-7.3,8.3-9.9,13.2c-2.6,4.9-4.9,10.1-7.5,15.2l-0.2-1.1c0,0,0.4,0.1,0.7,0.1
						c0.4,0,0.8,0,1.2-0.1c0.9-0.1,1.7-0.4,2.6-0.6c1.7-0.5,3.5-1.2,5.2-1.8c3.4-1.4,6.8-2.9,10.2-4.5c3.4-1.6,6.7-3.2,10-4.9
						c3.3-1.7,6.4-3.6,9.6-5.5c6.3-3.8,12.6-7.9,19-11.8c1.6-1,3.2-1.9,4.8-2.9l1.2-0.7l0.6-0.4l0.6-0.3l2.5-1.3
						c3.3-1.7,6.5-3.5,9.8-5.3c12.9-7.4,25.3-15.6,37.5-24.1c6.1-4.2,12.1-8.7,18.3-12.8c6.2-4.1,12.6-8,19-11.8
						c0,0,2.1-1.3,5.7-3.4c3.6-2.1,8.6-5,14.3-8.5c2.9-1.7,5.9-3.6,9-5.6c3.1-1.9,6.3-4,9.5-6.1c6.4-4.2,12.7-8.5,18.4-12.5
						c9.7-6.7,15.9-11.2,19.5-13.7c3.6-2.5,4.6-3.1,3.6-2.3c-1.9,1.6-11.4,8.9-23.3,17.4c1.2-0.9-12.9,9.5-27.9,19
						c-7.5,4.9-15.3,9.5-21.1,13c-5.8,3.5-9.7,5.9-9.7,5.9c-6.2,3.8-12.4,7.6-18.4,11.7c-3,2-6,4.2-9,6.3l-9,6.3
						c-12,8.3-24.3,16.3-37,23.5c-3.2,1.8-6.4,3.5-9.7,5.2l-1.2,0.6l-0.6,0.3l-0.6,0.3l-2.4,1.4c-1.6,0.9-3.1,1.9-4.7,2.8
						c-6.2,3.8-12.3,7.8-18.6,11.6c-3.1,1.9-6.3,3.8-9.6,5.4c-3.3,1.7-6.5,3.3-9.9,4.9c-3.3,1.6-6.7,3.1-10.1,4.4
						c-1.7,0.7-3.4,1.3-5.2,1.8c-0.9,0.3-1.8,0.5-2.8,0.6c-0.5,0.1-1,0.1-1.5,0.1c-0.3,0-0.5,0-0.9-0.1c-0.2-0.1-0.3-0.1-0.5-0.2
						c-0.2-0.1-0.4-0.2-0.5-0.3l-0.6-0.4l0.4-0.7c2.6-5,4.8-10.1,7.5-15.2c2.7-5,5.9-9.9,10.3-13.7c0.5-0.5,1.1-0.9,1.7-1.3
						c0.6-0.5,1.1-0.8,1.7-1.3c1.1-0.8,2.3-1.7,3.4-2.5c2.2-1.7,4.4-3.5,6.6-5.3C395.8,122.2,400.1,118.5,404.4,114.9z"/>
				</g>
			</g>
		</g>
	</g>
	<g class="st0">
		<g>
			<g>
				<g>
					<path class="st13" d="M396.6,170.6C396.6,170.6,396.6,170.6,396.6,170.6c-0.1,0.5-0.4,1.2-1.4,1.1c0,0-0.1,0-0.1,0
						c0,0-0.4-0.7-1-1.6c-0.6-0.9-1.3-2.2-2-3.4c-1.4-2.5-2.5-5.1-2.5-5.1s-0.6-1.8-0.7-3.1c-0.4-2.2,0.3-1.5,1-0.3
						c0-0.1,0.4,0.6,0.7,1.4c0.4,0.7,0.8,1.5,0.8,1.5s1.1,2.5,2.4,4.9c0.7,1.2,1.4,2.4,1.9,3.3C396.2,170,396.5,170.6,396.6,170.6z"
						/>
				</g>
			</g>
		</g>
	</g>
	<g class="st0">
		<g>
			<g>
				<g>
					<path class="st13" d="M425.4,197c-0.3,0-0.4,0-0.7,0c-2.5-0.1-6.2-0.3-0.2-0.6c0.1,0,0.7,0,0.9,0c0.4,0,7.3,0,17.5-0.5
						c5.1-0.3,11-0.6,17.3-1.1c6.3-0.5,13-1.2,19.6-2.3c3.3-0.5,6.6-1.3,9.8-2c3.2-0.7,6.4-1.4,9.5-2c6.2-1.3,11.9-2.4,16.8-3.3
						c9.9-1.8,16.4-3.1,16.4-3.1s17.1-3.1,29.1-5.5c10.1-2,13.2-2.7,12.1-2.4c-1,0.3-6.2,1.5-12.4,2.8c0.7-0.1-6.8,1.5-14.5,3
						c-7.7,1.5-15.6,3-15.6,3s-6.5,1.2-16.2,3c-4.9,0.9-10.5,2-16.6,3.3c-3,0.6-6.2,1.3-9.3,2c-3.2,0.7-6.4,1.4-9.7,1.9
						c-13.1,2-26.4,2.8-36.5,3.3C432.6,197,425.7,197,425.4,197z"/>
				</g>
			</g>
		</g>
	</g>
	<g class="st0">
		<g>
			<path class="st15" d="M497.1,303.6c8-9.9,14.7-17.7,15.9-31.6"/>
			<g>
				<path class="st13" d="M498.8,303.6c0,0-1,1.1-1.1,1.2c-0.5,0.3-2.5-0.1-2-1.5c0,0,1.5-0.7,1.5-0.8c0.1-0.2,4.2-4.9,7.6-10
					c3.6-5,5.6-11,5.6-11c0,0,2.5-2.9,3-5.7c1-5.5,0.8-3.6,3.2-2.8c0.6-2.1-5.1,9.3-5.3,9.3c0,0-2,6-5.7,11.1
					C502.2,298.5,500.4,301.8,498.8,303.6z"/>
			</g>
		</g>
	</g>
	<g class="st0">
		<g>
			<linearGradient id="SVGID_50_" gradientUnits="userSpaceOnUse" x1="104.7913" y1="244.704" x2="114.4447" y2="244.704">
				<stop  offset="0" style="stop-color:#FFFFFF"/>
				<stop  offset="1" style="stop-color:#000000"/>
			</linearGradient>
			<path class="st51" d="M105.3,224.2c0-0.1,0.1-1.5,0.2-1.6c0.3-0.7-0.2,0.3,0.9-0.2c0,0,1.2-0.1,1.2,0c0,0.2-1.5,9.7-0.5,17.4
				c0.9,7.8,2.9,15.3,2.9,15.3c0,0,1.2,5.1,2.6,8.4c2.2,3.4,2.5,3.1,0.2,3.6c-1.5-4.1-4-12-3.9-12c0,0-2.8-7.3-3.7-15.2
				C104.2,232,105.3,227.7,105.3,224.2z"/>
		</g>
	</g>
	<g class="st0">
		<linearGradient id="SVGID_51_" gradientUnits="userSpaceOnUse" x1="141.789" y1="414.5951" x2="221.0168" y2="414.5951">
			<stop  offset="0" style="stop-color:#FFFFFF"/>
			<stop  offset="1" style="stop-color:#000000"/>
		</linearGradient>
		<path class="st52" d="M172.7,422.9c-12.3-11.8-22.4-24.6-30.9-39.1l1.5-1l0.9-0.7c7,14.5,10.4,19.1,26,36.5l14.4,10.8
			c13.5,13.1,19.2,14.4,36.3,17l-0.4,1.1l-0.8-0.2c-17.2-2.6-22-2.7-35.4-15.9L172.7,422.9z M145,381.6L145,381.6L145,381.6
			L145,381.6L145,381.6L145,381.6z"/>
	</g>
	<g class="st0">
		<linearGradient id="SVGID_52_" gradientUnits="userSpaceOnUse" x1="475.4439" y1="142.3139" x2="511.3818" y2="142.3139">
			<stop  offset="0" style="stop-color:#FFFFFF"/>
			<stop  offset="1" style="stop-color:#000000"/>
		</linearGradient>
		<path class="st53" d="M475.4,153.7c12.7-7,24.1-14.5,35.9-22.8"/>
		<g>
			<linearGradient id="SVGID_53_" gradientUnits="userSpaceOnUse" x1="472.7325" y1="141.772" x2="515.2251" y2="141.772">
				<stop  offset="0" style="stop-color:#FFFFFF"/>
				<stop  offset="1" style="stop-color:#B3B3B3"/>
			</linearGradient>
			<path class="st54" d="M478.9,152.9c-0.1,0-0.9,0.7-3.1,1.5c-0.7,0.2-4,1.3-2.8,0c0,0,3.1-1.7,3.1-1.8
				c0.5,0.1,25.5-15.4,25.4-15.6c0,0,4-2.6,6.9-4.4c4.8-3,12.4-7.7,0.3,0.6c0.3-0.2-7.4,4.9-7.4,4.8
				C501.4,138.4,479.4,153,478.9,152.9z"/>
		</g>
	</g>
	<g class="st0">
		<path class="st15" d="M169.1,183.4c-7.4,9.9-10.1,20.7-9.2,32.5"/>
		<g>
			<linearGradient id="SVGID_54_" gradientUnits="userSpaceOnUse" x1="155.8675" y1="201.1605" x2="166.5992" y2="201.1605">
				<stop  offset="0" style="stop-color:#FFFFFF"/>
				<stop  offset="1" style="stop-color:#000000"/>
			</linearGradient>
			<path class="st55" d="M162.3,184.3c0-0.1,0.5-1.3,0.6-1.3c0.5-0.3,1.4,0.2,2.8,0c0,0,0.9,0.6,0.9,0.7c-0.1,0.1-3.5,3.6-5.5,9.2
				c-2.3,5.5-0.7,13.1-0.7,13c-0.1,0-1.1,3.9-1.3,6.7c0.5,2.7,0.9,4.8,0.3,5.9c-1.1,0-1.4,1-3.5,1c-0.2,0.3,1.5-12.8,1.7-12.8
				c0,0-1-7.8,1.4-13.5C161.1,187.4,162.2,184.4,162.3,184.3z"/>
		</g>
	</g>
	<g class="st0">
		<g>
			<linearGradient id="SVGID_55_" gradientUnits="userSpaceOnUse" x1="115.9762" y1="83.8411" x2="80.6805" y2="187.7677">
				<stop  offset="0" style="stop-color:#FFFFFF"/>
				<stop  offset="1" style="stop-color:#666666"/>
			</linearGradient>
			<path class="st56" d="M116.8,79.9c0.2-0.2,0.2-0.3,0.5-0.5c1.8-1.8,4.7-4.1,1.4,1.2c-0.1,0.1-0.4,0.5-0.5,0.8
				c-0.2,0.3-4.8,5.6-11.1,13.8c-6.1,8.2-14.7,19.4-18.3,32.6c-6.5,27.1-10.5,54.6-9.8,54.6c-0.1,0-1,18.1,1,30.6
				c3.9,21.1,1.6,13-1.1-0.2c0.1,0.7-1.3-7.2-1.7-15.5c-0.5-8.2,0-16.6,0-16.6c-0.5-0.1,3.5-27.4,10-54.2
				c4-13.7,12.5-24.6,18.6-32.8C112.1,85.5,116.6,80.2,116.8,79.9z"/>
		</g>
	</g>
	<g class="st0">
		<path class="st15" d="M29.4-2c19,21,58.5,61.9,82.1,74.7c26,14,52,26.8,78.5,39.9c26.5,13.2,31.7,15.5,44.3,21.7
			c14.7,5.9,27.7,11.2,25.7,10.8c3.3,1,11.4,3.8,15.9,5.6c8.9,3.5,17.8,4.9,32.2,9.5c-0.8,1.8,0.5,9.2-1.2,9.5
			c-11,2.3-22,5.7-28.3,6.7c-6,0.9-38.8,5.7-44.1,5.7"/>
		<g>
			<linearGradient id="SVGID_56_" gradientUnits="userSpaceOnUse" x1="326.1795" y1="157.799" x2="-168.4745" y2="-15.1444">
				<stop  offset="0" style="stop-color:#FFFFFF"/>
				<stop  offset="1" style="stop-color:#000000"/>
			</linearGradient>
			<path class="st57" d="M33.2,10C32.6,9.4,20.7-0.2,20.1-1c-4.5-5.3,4.1-6.9,15.7,4.6C36,3.8,37,4.8,37.5,5.3
				C38.2,6,50.9,20.1,70.9,39.1c10.1,9.4,22.9,18.2,37,27.4c14.5,8.4,29.5,18.5,45.4,26.6c31.9,15.9,63.7,32.2,87.9,42.9
				c6.2,2.5,11.8,4.8,16.8,6.9c3.9,2.2,9.2,3.3,12.6,4.7c7.3,2.7,11.3,4.1,11.4,4.1c-0.1,0.2,11,2.9,25.9,7.5l0.3,0.1l0.2,0.1l0,0
				c-0.1-0.3,0.9,2.3,0.5,1.2l0,0l0,0.1c-0.1,0.1-0.1,0.3-0.1,0.5c0,0.5-0.1,1-0.1,1.5c0,1,0,2.1,0,3.2c-0.1,1.1,0.1,2.2-0.5,3.6
				c-1.7,1.8-2.2,0.9-3.4,1.5c-4.1,0.9-8.4,1.9-12.7,3c-8.5,2.4-17.4,3.6-25.3,4.6c-26.9,3.8-35.1,3.7-32.3,3.3
				c2.8-0.2,16.5-2.1,33.2-4.6c-0.9,0.1,3.7-0.6,11-1.7c7.2-1.2,17-4.4,27.1-6.6c2,0.4,1.1-3.9,1.2-6.2c0-0.7,0-1.4,0.1-2.2
				c0-0.2,0.1-0.4,0.2-0.6l0.1-0.2l0-0.1c1,2.5,0.3,0.7,0.5,1.2l0,0l-0.2-0.1l-0.9-0.3l-3.5-1.1c-4.7-1.4-9.1-2.5-12.9-3.5
				c-7.6-1.9-12.7-3.7-12.7-3.7c0,0-4.1-1.6-11.2-4.1c-1.8-0.6-3.8-1.3-5.9-2c-1.6-0.9-4.1-1.9-6.5-3c-4.9-2-10.5-4.3-16.5-6.7
				c-23.9-11-56.4-25.1-87.9-40.8c-15.7-8.1-31.3-16.4-45.7-25c-14-9.4-27.6-20.5-37.6-29.8C46.4,22.2,33.9,10.6,33.2,10z"/>
		</g>
	</g>
	<g class="st0">
		<g>
			<linearGradient id="SVGID_57_" gradientUnits="userSpaceOnUse" x1="515.7701" y1="167.6975" x2="303.7179" y2="197.2002">
				<stop  offset="0" style="stop-color:#FFFFFF"/>
				<stop  offset="1" style="stop-color:#000000"/>
			</linearGradient>
			<path class="st58" d="M557.9,201.8c0.7,0,1,0,1.9,0c6.4,0.2,15.7,0.6,0.4,1.1c-0.3,0-1.6,0-2.3,0.1c-1.8-0.7-70.9,3.1-139-5.7
				c-8.6-1.1-16.6-4.6-25-5.3c-4.2-0.6-8.3-1.1-12.4-2l-0.8-0.2l-0.2,0c-0.9-1.1-0.3-0.4-0.5-0.8l0-0.4c0-0.6,0-1.2,0.2-1.8
				c0.2-1.2,0.6-2.2,1-3.2c0.8-2,1.5-4,1.8-6c0.1-0.5,0.1-1,0.1-1.5l0.1-0.8c0.8-1.5,0.7-0.5,1-0.9l2.9-0.7c1.9-0.4,3.8-0.9,5.7-1.3
				c3.8-0.8,7.5-1.5,11.1-2.1c7.2-1.3,14.1-2.3,20.5-3c25.3-3.5,41.2-10.5,41.3-10.2c0,0,10.6-3.5,24.6-9
				c14.1-5.4,32.4-10.5,47-15.9c24.9-9.3,31-15.3,28.9-13.3c-2.3,1.7-14.1,8.8-29.6,14.3c1.7-0.4-17,5.9-36,12.2
				c-18.7,7.2-38.1,14.2-38.1,14.1c0-0.4-15.9,6.5-41,9.4c-6.2,0.7-13,1.8-20.1,3.1c-3.5,0.7-7.2,1.4-10.9,2.2
				c-1.9,0.4-3.7,0.9-5.6,1.3l-0.7,0.2c0.6-1.2,0.1,0.1,0.2,0.1l-0.1,1.6c-0.2,1.1-0.3,2.2-0.7,3.2c-0.6,2.1-1.6,4-2.1,5.9
				c-0.3,0.6-0.2,2.8-0.4,2.1l3,0.6c4,0.7,8.1,1.2,12.2,1.8c8.4,0.9,16.2,4.5,24.6,5.3C488,204.7,556.1,201.1,557.9,201.8z"/>
		</g>
	</g>
	<g class="st0">
		<g>
			<linearGradient id="SVGID_58_" gradientUnits="userSpaceOnUse" x1="334.1685" y1="174.9976" x2="201.1838" y2="-3.1676">
				<stop  offset="0" style="stop-color:#FFFFFF"/>
				<stop  offset="1" style="stop-color:#000000"/>
			</linearGradient>
			<path class="st59" d="M317.4,145.9c0.4-0.2,0.5-0.3,1-0.5c3.6-1.6,8.7-2.7,0.7,0.9c-0.1,0.1-0.8,0.5-1.1,0.7
				c-0.1,0.1-0.8,0.4-1.9,1.1c-0.6,0.3-1.2,0.8-2,1.2c-0.8,0.2-1.9,1.4-3.5,0.2c-2.9-3.9-6.6-9.3-10.9-16
				c-8.2-13.6-20.6-30.2-34.4-45.5c-13-16-27.4-30.8-35.7-44c-8.9-12.7-15.8-20.2-15.8-20.2c1.1-0.9-20.9-16.8-29-34.7
				c-7-14.6-7.8-19.6-7.3-17.9c0.8,1.5,3.4,9.4,8.2,18.1c-0.5-1,4.9,9.9,13.3,18.4c8.8,7.9,17.4,16.8,17.2,16.9
				c1-0.8,23.3,33.4,50.7,63.3c13.6,15.1,25.9,31.7,34,45c4.2,6.5,8,12.1,10.6,15.6c1.1,0.5,3.2-1.2,4.1-1.7
				C316.6,146.4,317.2,146,317.4,145.9z"/>
		</g>
	</g>
</g>
</svg>
