<svg style="position: absolute; width: 0; height: 0;" width="0" height="0" version="1.1" xmlns="http://www.w3.org/2000/svg" xmlns:xlink="http://www.w3.org/1999/xlink">
<defs>
<symbol id="icon-name" viewBox="0 0 934 1024">
	<path class="path1" d="M913.067 891.733c-21.333-64-179.2-153.6-251.733-183.467-4.267-4.267-12.8 0-17.067 0l-179.2 85.333-162.133-85.333c-4.267-4.267-8.533-4.267-17.067 0-64 25.6-251.733 110.933-273.067 187.733-8.533 46.933-12.8 72.533-12.8 72.533s0 4.267 0 4.267c0 25.6 12.8 38.4 25.6 42.667 12.8 8.533 34.133 8.533 51.2 8.533 4.267 0 8.533 0 12.8 0h750.933c4.267 0 12.8 0 17.067 0s12.8 0 17.067 0 59.733 0 59.733-46.933c0-21.333-4.267-34.133-21.333-85.333zM874.667 985.6c-4.267 0-8.533 0-12.8 0s-12.8 0-17.067 0h-755.2c-4.267 0-8.533 0-12.8 0s-8.533 0-12.8 0c0 0 0 0 0 0-4.267 0-17.067 0-25.6-4.267 0 0-4.267 0-4.267-8.533s8.533-29.867 17.067-76.8c12.8-42.667 145.067-119.467 238.933-157.867l162.133 85.333c4.267 4.267 12.8 4.267 17.067 0l179.2-85.333c106.667 46.933 213.333 123.733 221.867 157.867 17.067 51.2 17.067 59.733 17.067 72.533 8.533 17.067 8.533 17.067-12.8 17.067z"></path>
	<path class="path2" d="M268.8 482.133c8.533 25.6 21.333 42.667 34.133 64 4.267 4.267 8.533 12.8 8.533 17.067 12.8 21.333 25.6 34.133 38.4 46.933 0 17.067-4.267 42.667-8.533 59.733-4.267 8.533 4.267 21.333 12.8 21.333 8.533 4.267 21.333-4.267 21.333-12.8 4.267-21.333 8.533-55.467 8.533-76.8 0-4.267-4.267-12.8-8.533-17.067-12.8-8.533-25.6-21.333-34.133-42.667-4.267-4.267-8.533-12.8-12.8-17.067-12.8-21.333-25.6-38.4-34.133-64-4.267-8.533-8.533-12.8-17.067-12.8 0 0-8.533-4.267-8.533-8.533-12.8-34.133-21.333-85.333-17.067-98.133 0 0 4.267 0 8.533 0s8.533 0 12.8-4.267c4.267-4.267 4.267-8.533 4.267-12.8-4.267-110.933 34.133-166.4 68.267-196.267 4.267-4.267 8.533-12.8 4.267-21.333 0 0 0 0 0 0 17.067-12.8 42.667-8.533 42.667-8.533v-17.067l17.067-8.533c0-4.267 0-8.533 4.267-17.067 8.533 8.533 25.6 17.067 38.4 17.067 38.4 12.8 68.267 21.333 85.333 29.867 81.067 29.867 123.733 115.2 119.467 226.133 0 4.267 0 8.533 4.267 12.8 4.267 0 8.533 0 17.067 0 0 0 4.267 0 4.267 0 4.267 12.8-4.267 64-21.333 98.133-4.267 4.267-8.533 8.533-8.533 8.533-8.533 0-12.8 4.267-17.067 12.8-8.533 25.6-21.333 42.667-34.133 64-4.267 4.267-8.533 12.8-12.8 17.067-12.8 17.067-21.333 29.867-34.133 38.4-4.267 4.267-8.533 8.533-8.533 17.067 0 17.067 0 51.2 8.533 81.067 4.267 8.533 8.533 12.8 17.067 12.8 0 0 4.267 0 4.267 0 8.533-4.267 17.067-12.8 12.8-21.333-4.267-21.333-8.533-46.933-8.533-59.733 12.8-12.8 21.333-25.6 34.133-42.667 4.267-4.267 8.533-12.8 12.8-17.067 12.8-17.067 25.6-38.4 34.133-64 8.533-4.267 21.333-12.8 25.6-25.6 21.333-38.4 34.133-106.667 25.6-128-4.267-8.533-12.8-17.067-21.333-21.333 0-119.467-51.2-209.067-145.067-247.467-17.067-8.533-46.933-21.333-89.6-29.867-17.067-4.267-25.6-12.8-25.6-12.8 0-4.267-4.267-8.533-8.533-12.8 4.267-8.533-4.267-8.533-8.533-8.533-17.067 4.267-29.867 25.6-34.133 38.4-4.267 8.533-4.267 12.8-4.267 17.067-25.6 4.267-59.733 17.067-72.533 51.2 0 4.267 0 8.533 0 8.533-34.133 38.4-64 98.133-64 192-8.533 4.267-17.067 12.8-21.333 21.333-8.533 25.6 4.267 89.6 25.6 128 4.267 12.8 17.067 21.333 25.6 25.6z"></path>
</symbol>
<symbol id="icon-phone" viewBox="0 0 1037 1024">
	<path class="path1" d="M1036.8 849.067c-4.267-17.067-12.8-34.133-38.4-51.2l-226.133-157.867c-12.8-8.533-25.6-12.8-38.4-12.8-21.333 0-42.667 8.533-55.467 29.867l-59.733 85.333c-4.267 8.533-4.267 12.8-4.267 21.333-21.333 4.267-89.6 0-196.267-106.667-106.667-102.4-153.6-179.2-149.333-230.4 0 0 0 0 4.267-4.267 4.267 0 8.533-4.267 12.8-8.533l81.067-64c29.867-21.333 34.133-64 12.8-93.867l-166.4-221.867c-29.867-42.667-68.267-46.933-106.667-12.8-25.6 21.333-68.267 76.8-85.333 106.667-8.533 17.067-12.8 34.133-12.8 51.2-4.267 25.6-17.067 98.133 4.267 204.8 29.867 140.8 110.933 277.333 238.933 401.067 217.6 209.067 409.6 238.933 503.467 238.933v0c55.467 0 93.867-8.533 110.933-17.067 17.067 0 34.133-4.267 46.933-12.8 29.867-17.067 81.067-59.733 102.4-89.6 17.067-21.333 25.6-38.4 21.333-55.467zM985.6 878.933c-17.067 21.333-64 64-93.867 76.8-4.267 4.267-8.533 4.267-12.8 4.267-25.6-12.8-72.533-34.133-85.333-51.2-8.533-8.533-17.067-8.533-25.6-4.267-8.533 8.533-8.533 17.067-4.267 25.6 12.8 17.067 34.133 29.867 55.467 42.667-17.067 4.267-42.667 8.533-72.533 8.533v0c-89.6 0-268.8-29.867-473.6-230.4-290.133-281.6-234.667-537.6-226.133-563.2 0-4.267 0-4.267 0-8.533 0-8.533 0-21.333 8.533-29.867 17.067-25.6 55.467-76.8 76.8-93.867 8.533-12.8 17.067-17.067 25.6-17.067 4.267 0 12.8 0 25.6 21.333l162.133 221.867c8.533 12.8 8.533 34.133-4.267 42.667l-81.067 64c0 0 0 0 0 0-21.333-17.067-51.2-42.667-59.733-55.467-8.533-8.533-17.067-12.8-25.6-8.533-12.8 8.533-12.8 21.333-8.533 29.867 12.8 17.067 42.667 42.667 64 59.733-17.067 59.733 34.133 145.067 157.867 268.8 98.133 98.133 170.667 119.467 213.333 119.467 17.067 0 34.133-4.267 38.4-8.533s8.533-8.533 8.533-12.8c0-4.267 0-8.533 0-8.533 0-4.267 0-4.267 0-8.533l59.733-81.067c8.533-12.8 29.867-17.067 42.667-4.267l230.4 157.867c12.8 8.533 21.333 17.067 21.333 25.6-4.267 0-8.533 8.533-17.067 17.067z"></path>
	<path class="path2" d="M494.933 221.867c149.333 46.933 268.8 162.133 311.467 311.467 4.267 8.533 8.533 12.8 17.067 12.8 0 0 4.267 0 4.267 0 8.533-4.267 17.067-12.8 12.8-25.6-51.2-162.133-174.933-285.867-337.067-337.067-8.533-4.267-21.333 4.267-25.6 12.8 4.267 12.8 8.533 25.6 17.067 25.6z"></path>
	<path class="path3" d="M524.8 81.067c226.133 51.2 396.8 234.667 435.2 460.8 0 8.533 8.533 17.067 17.067 17.067 0 0 4.267 0 4.267 0 8.533 0 17.067-12.8 17.067-21.333-42.667-247.467-226.133-439.467-465.067-494.933-8.533-4.267-21.333 4.267-21.333 12.8-4.267 12.8 0 21.333 12.8 25.6z"></path>
</symbol>
<symbol id="icon-email" viewBox="0 0 1033 1024">
	<path class="path1" d="M925.867 413.867l-140.8 98.133v-196.267c0-8.533-8.533-17.067-17.067-17.067h-499.2c-12.8 0-21.333 8.533-21.333 17.067v196.267l-140.8-98.133c-8.533-4.267-21.333 0-25.6 8.533s-4.267 21.333 4.267 25.6l358.4 243.2c21.333 12.8 46.933 21.333 72.533 21.333s51.2-8.533 72.533-21.333l358.4-243.2c8.533-4.267 12.8-17.067 4.267-25.6-4.267-8.533-17.067-12.8-25.6-8.533zM567.467 661.333c-29.867 21.333-76.8 21.333-106.667 0l-179.2-123.733c0-4.267 4.267-4.267 4.267-8.533v-192h460.8v192c0 4.267 0 8.533 4.267 8.533l-183.467 123.733z"></path>
	<path class="path2" d="M1002.667 341.333l-413.867-320c-21.333-12.8-46.933-21.333-72.533-21.333s-51.2 8.533-72.533 21.333l-413.867 320c-17.067 12.8-29.867 38.4-29.867 59.733v524.8c0 55.467 42.667 98.133 93.867 98.133h844.8c51.2 0 93.867-42.667 93.867-93.867v-529.067c0-21.333-12.8-46.933-29.867-59.733zM994.133 930.133c0 29.867-25.6 55.467-55.467 55.467h-844.8c-29.867 0-55.467-25.6-55.467-55.467v-529.067c0-8.533 8.533-25.6 12.8-29.867l413.867-320c12.8-8.533 29.867-17.067 46.933-17.067s38.4 4.267 46.933 17.067l422.4 320c8.533 4.267 12.8 21.333 12.8 29.867v529.067z"></path>
	<path class="path3" d="M648.533 413.867h-264.533c-8.533 0-17.067 8.533-17.067 17.067s8.533 17.067 17.067 17.067h268.8c8.533 0 17.067-8.533 17.067-17.067s-8.533-17.067-21.333-17.067z"></path>
	<path class="path4" d="M648.533 490.667h-264.533c-8.533 0-17.067 8.533-17.067 17.067s8.533 17.067 17.067 17.067h268.8c8.533 0 17.067-8.533 17.067-17.067s-8.533-17.067-21.333-17.067z"></path>
</symbol>
<symbol id="icon-play" viewBox="0 0 906 1024">
	<path class="path1" d="M102.4 9.6l771.2 444.8c44.8 25.6 44.8 89.6 0 115.2l-771.2 444.8c-44.8 25.6-102.4-6.4-102.4-57.6v-889.6c0-51.2 57.6-83.2 102.4-57.6z"></path>
</symbol>
<symbol id="icon-cards" viewBox="0 0 1372 1024">
	<path  class="path1" d="M1300.086 245.409h-148.999l124.165 305.301c17.529 45.284 4.382 94.95-30.676 124.165h127.087v-359.35c-1.461-39.441-32.137-70.117-71.578-70.117z"></path>
	<path  class="path2" d="M1156.93 674.876l43.823-17.529c36.519-14.608 54.049-55.509 39.441-92.029l-16.068-37.98-365.193 148.999-655.886 265.86 16.068 37.98c14.608 36.519 55.509 54.049 92.029 39.441l845.786-344.742z"></path>
	<path class="path3" d="M584.308 948.040h715.777c39.441 0 70.117-32.137 70.117-70.117v-40.902h-509.809l-276.086 111.019z"></path>
	<path class="path4" d="M429.466 674.876l734.767-297.997-54.049-131.469-81.803-200.126c-14.608-36.519-55.509-54.049-92.029-39.441l-891.070 360.81c-36.519 14.608-54.049 55.509-39.441 92.029l134.391 333.056 127.087-51.127 162.146-65.735z"></path>
</symbol>
<symbol id="icon-cart" viewBox="0 0 1065 1024">
	<path  class="path1" d="M1002.667 234.667l-731.022-58.311-113.778-86.756c0-2.844 1.422-7.111 1.422-9.956 0-44.089-35.556-79.644-79.644-79.644s-79.644 35.556-79.644 79.644 35.556 79.644 79.644 79.644c8.533 0 17.067-1.422 25.6-4.267l122.311 92.444 78.222 396.8c7.111 28.444 14.222 48.356 36.978 56.889l-62.578 100.978c-58.311 2.844-105.244 51.2-105.244 110.933 0 61.156 49.778 110.933 110.933 110.933 48.356 0 88.178-29.867 103.822-72.533h341.333c15.644 42.667 55.467 72.533 103.822 72.533 61.156 0 110.933-49.778 110.933-110.933s-49.778-110.933-110.933-110.933c-44.089 0-83.911 27.022-100.978 65.422h-348.444c-7.111-14.222-15.644-27.022-27.022-36.978l69.689-123.733h490.667c39.822 0 54.044-32.711 61.156-61.156l85.333-347.022c-1.422-35.556-28.444-64-62.578-64zM846.222 644.267h-422.4c-17.067 0-31.289-14.222-31.289-31.289s14.222-31.289 31.289-31.289h422.4c17.067 0 31.289 14.222 31.289 31.289s-14.222 31.289-31.289 31.289zM888.889 519.111h-493.511c-17.067 0-31.289-14.222-31.289-31.289s14.222-31.289 31.289-31.289h493.511c17.067 0 31.289 14.222 31.289 31.289s-14.222 31.289-31.289 31.289zM924.444 393.956h-560.356c-17.067 0-31.289-14.222-31.289-31.289s14.222-31.289 31.289-31.289h560.356c17.067 0 31.289 14.222 31.289 31.289s-14.222 31.289-31.289 31.289z"></path>
</symbol>
<symbol id="icon-dish" viewBox="0 0 2005 1024">
	<path class="path1" d="M2005.222 965.18c0 32.084-26.736 58.82-58.82 58.82h-1887.582c-32.084 0-58.82-26.736-58.82-58.82s26.736-58.82 58.82-58.82h1887.582c32.084 0 58.82 26.736 58.82 58.82zM1879.561 831.499h-1753.901c45.452-401.044 355.593-649.692 751.29-692.47 0-5.347-2.674-10.695-2.674-13.368 0-69.514 56.146-125.661 125.661-125.661s125.661 56.146 125.661 125.661c0 5.347 0 10.695-2.674 13.368 401.044 42.778 711.185 294.099 756.637 692.47zM989.243 259.342c0-18.715-16.042-32.084-34.757-29.41-304.794 18.715-572.157 133.681-684.449 422.433-5.347 16.042 2.674 34.757 18.715 42.778 2.674 2.674 8.021 2.674 10.695 2.674 13.368 0 24.063-8.021 29.41-21.389 104.272-267.363 350.245-366.287 628.303-382.329 18.715-2.674 32.084-18.715 32.084-34.757z"></path>
</symbol>
<symbol id="icon-location" viewBox="0 0 634 1024">
	<path class="path1" d="M316.757 0c-174.763 0-316.757 141.995-316.757 316.757 0 259.413 316.757 707.243 316.757 707.243s316.757-453.291 316.757-707.243c0-174.763-141.995-316.757-316.757-316.757zM315.392 521.557c-113.323 0-206.165-92.843-206.165-206.165s92.843-206.165 206.165-206.165 206.165 92.843 206.165 206.165c0 114.688-92.843 206.165-206.165 206.165z"></path>
</symbol>
<symbol id="icon-money" viewBox="0 0 1201 1024">
	<path  class="path1" d="M479.817 416.914c-48.274-27.794-70.217-64.366-62.903-96.549l-99.474-57.051-317.44 181.394 431.543 248.686 318.903-184.32-99.474-57.051c-58.514 4.389-122.88-7.314-171.154-35.109zM0 617.326v51.2l431.543 248.686 318.903-184.32v-51.2l-318.903 184.32-431.543-248.686zM0 510.537v51.2l431.543 248.686 318.903-184.32v-51.2l-318.903 184.32-431.543-248.686zM0 724.114v51.2l431.543 248.686 318.903-184.32v-51.2l-318.903 184.32-431.543-248.686zM937.691 400.823l263.314-152.137-431.543-248.686-261.851 152.137 430.080 248.686zM937.691 624.64l263.314-152.137v-51.2l-263.314 152.137v51.2zM343.771 245.76l433.006 247.223v332.069l131.657-76.069v-332.069l-431.543-248.686-133.12 77.531zM937.691 517.851l263.314-152.137v-51.2l-263.314 152.137v51.2zM937.691 731.429l263.314-152.137v-51.2l-263.314 152.137v51.2z"></path>
</symbol>
<symbol id="icon-search" viewBox="0 0 1024 1024">
	<path class="path1" d="M444.884 705.678l-34.517-34.517c-126.562-111.221-208.38-186.647-208.38-279.97 0-75.426 58.806-134.232 134.232-134.232 40.909 0 83.096 19.176 109.943 51.136 26.846-31.96 67.755-51.136 109.943-51.136 75.426 0 134.232 58.806 134.232 134.232 0 92.045-83.096 167.471-208.38 279.97l-37.074 34.517z"></path>
	<path class="path2" d="M997.154 868.035l-193.039-166.192c53.693-74.147 83.096-163.635 83.096-258.237 0-118.891-46.022-230.112-130.397-313.208-83.096-83.096-195.596-130.397-313.208-130.397-118.891 0-230.112 46.022-313.208 130.397-83.096 83.096-130.397 195.596-130.397 313.208 0 118.891 46.022 230.112 130.397 313.208 83.096 83.096 195.596 130.397 313.208 130.397 93.323 0 182.811-29.403 258.237-83.096l166.192 193.039c35.795 35.795 93.323 35.795 129.119 0 35.795-37.074 35.795-94.602 0-129.119zM201.988 685.223c-132.954-132.954-132.954-350.282 0-483.236s350.282-132.954 483.236 0c132.954 132.954 132.954 350.282 0 483.236-131.675 132.954-349.004 132.954-483.236 0z"></path>
</symbol>
</defs>
</svg>
